<svg width="120" height="120" viewBox="0 0 120 120" fill="none" xmlns="http://www.w3.org/2000/svg">
<rect width="120" height="120" rx="16" fill="#00ACB1"/>
<path d="M60 32.7017L21.6891 47.0686L60 66.2241L78.247 57.1005L61.1292 51.8669C60.7767 52.036 60.3909 52.1242 60 52.125C59.3038 52.125 58.6361 51.8485 58.1438 51.3562C57.6515 50.8639 57.375 50.1962 57.375 49.5C57.375 48.8038 57.6515 48.1361 58.1438 47.6439C58.6361 47.1516 59.3038 46.875 60 46.875L59.5659 48.2863L62.6071 49.2219C62.6075 49.225 62.608 49.2281 62.6084 49.2311L67.0962 50.6035L92.6484 58.4652V60.4579C92.295 60.6984 92.0056 61.0215 91.8055 61.3992C91.6054 61.7769 91.5005 62.1977 91.5 62.6252C91.5005 63.0624 91.6101 63.4926 91.8191 63.8767C92.0281 64.2608 92.3296 64.5867 92.6965 64.8246C91.5016 69.3404 91.5 79.5863 91.5 83.625C94.125 85.3304 94.125 85.3928 96.75 83.625C96.75 79.5868 96.7487 69.3429 95.554 64.8261C95.9209 64.5879 96.2226 64.2618 96.4315 63.8774C96.6403 63.493 96.7498 63.0625 96.75 62.625C96.7499 62.1971 96.6453 61.7757 96.4451 61.3974C96.2449 61.0192 95.9553 60.6957 95.6015 60.455V56.2845L85.8687 53.2899L98.3109 47.0686L60 32.7017ZM37.6256 58.8516L35.4726 71.7699C39.767 72.3314 44.9039 74.8275 49.6263 77.779C52.312 79.4577 54.8276 81.3003 56.8706 83.088C58.1195 84.1807 59.1638 85.2291 60 86.2605C60.8362 85.2289 61.8805 84.1807 63.1293 83.088C65.1724 81.3003 67.6878 79.4577 70.3737 77.779C75.096 74.8275 80.233 72.3314 84.5273 71.7699L82.374 58.8516H81.3486L60 69.526L38.651 58.8516H37.6256Z" fill="#F2F2F2"/>
</svg>
