<svg width="120" height="120" viewBox="0 0 120 120" fill="none" xmlns="http://www.w3.org/2000/svg">
<rect width="120" height="120" rx="16" fill="#00ACB1"/>
<path d="M77.5 70.5C75.05 70.5 72.9792 69.6542 71.2875 67.9625C69.5958 66.2708 68.75 64.2 68.75 61.75C68.75 59.3 69.5958 57.2292 71.2875 55.5375C72.9792 53.8458 75.05 53 77.5 53C79.95 53 82.0208 53.8458 83.7125 55.5375C85.4042 57.2292 86.25 59.3 86.25 61.75C86.25 64.2 85.4042 66.2708 83.7125 67.9625C82.0208 69.6542 79.95 70.5 77.5 70.5ZM60 88V83.1C60 81.7 60.364 80.4027 61.092 79.208C61.8223 78.011 62.8583 77.15 64.2 76.625C66.3 75.75 68.4735 75.0943 70.7205 74.658C72.9652 74.2193 75.225 74 77.5 74C79.775 74 82.036 74.2193 84.283 74.658C86.5277 75.0943 88.7 75.75 90.8 76.625C92.1417 77.15 93.1777 78.011 93.908 79.208C94.636 80.4027 95 81.7 95 83.1V88H60ZM53 60C49.15 60 45.8542 58.6292 43.1125 55.8875C40.3708 53.1458 39 49.85 39 46C39 42.15 40.3708 38.8542 43.1125 36.1125C45.8542 33.3708 49.15 32 53 32C56.85 32 60.1458 33.3708 62.8875 36.1125C65.6292 38.8542 67 42.15 67 46C67 49.85 65.6292 53.1458 62.8875 55.8875C60.1458 58.6292 56.85 60 53 60ZM25 88V78.2C25 76.2167 25.4958 74.3932 26.4875 72.7295C27.4792 71.0682 28.85 69.8 30.6 68.925C34.1 67.175 37.7318 65.8333 41.4955 64.9C45.2568 63.9667 49.0917 63.5 53 63.5C55.0417 63.5 57.0833 63.675 59.125 64.025C61.1667 64.375 63.2083 64.7833 65.25 65.25L59.3 71.2C57.4917 72.5417 55.989 74.1902 54.792 76.1455C53.5973 78.0985 53 79.7167 53 81V88H25Z" fill="#F2F2F2"/>
</svg>
