<svg width="120" height="120" viewBox="0 0 120 120" fill="none" xmlns="http://www.w3.org/2000/svg">
<rect width="120" height="120" rx="16" fill="#00ACB1"/>
<path d="M37.25 25H77.5C79.8206 25 82.0462 25.9219 83.6872 27.5628C85.3281 29.2038 86.25 31.4294 86.25 33.75V57.5955C82.2617 56.3033 77.9939 56.1383 73.9178 57.1187C69.8416 58.0991 66.1157 60.1867 63.1512 63.1512C60.1867 66.1157 58.0991 69.8416 57.1187 73.9178C56.1383 77.9939 56.3033 82.2617 57.5955 86.25H33.75C33.75 87.1783 34.1187 88.0685 34.7751 88.7249C35.4315 89.3813 36.3217 89.75 37.25 89.75H59.062C60.0641 91.6702 61.3345 93.438 62.835 95H37.25C34.9294 95 32.7038 94.0781 31.0628 92.4372C29.4219 90.7962 28.5 88.5706 28.5 86.25V33.75C28.5 31.4294 29.4219 29.2038 31.0628 27.5628C32.7038 25.9219 34.9294 25 37.25 25V25ZM42.5 35.5C41.5717 35.5 40.6815 35.8687 40.0251 36.5251C39.3687 37.1815 39 38.0717 39 39V42.5C39 43.4283 39.3687 44.3185 40.0251 44.9749C40.6815 45.6313 41.5717 46 42.5 46H70.5C71.4283 46 72.3185 45.6313 72.9749 44.9749C73.6313 44.3185 74 43.4283 74 42.5V39C74 38.0717 73.6313 37.1815 72.9749 36.5251C72.3185 35.8687 71.4283 35.5 70.5 35.5H42.5ZM98.5 79.25C98.5 74.1446 96.4719 69.2483 92.8618 65.6382C89.2517 62.0281 84.3554 60 79.25 60C74.1446 60 69.2483 62.0281 65.6382 65.6382C62.0281 69.2483 60 74.1446 60 79.25C60 84.3554 62.0281 89.2517 65.6382 92.8618C69.2483 96.4719 74.1446 98.5 79.25 98.5C84.3554 98.5 89.2517 96.4719 92.8618 92.8618C96.4719 89.2517 98.5 84.3554 98.5 79.25ZM77.199 70.8395L87.02 77.2795C87.3243 77.4748 87.5739 77.7444 87.7454 78.0628C87.9168 78.3811 88.0044 78.7379 88 79.0995C88.0004 79.4634 87.914 79.8222 87.748 80.146C87.5913 80.4665 87.3521 80.7395 87.055 80.937L77.2305 87.6395C77.0596 87.7545 76.8734 87.8452 76.6775 87.909C76.2226 88.0543 75.73 88.0256 75.295 87.8285C75.0443 87.7111 74.8157 87.5513 74.6195 87.356C74.43 87.1496 74.2762 86.913 74.1645 86.656C74.0552 86.3931 73.9993 86.1112 74 85.8265V72.6735C73.9982 72.2524 74.1186 71.8397 74.3466 71.4856C74.5746 71.1315 74.9004 70.8512 75.2845 70.6785C75.5896 70.5355 75.9269 70.4748 76.2627 70.5024C76.5986 70.5301 76.9213 70.6451 77.199 70.836V70.8395Z" fill="#F2F2F2"/>
</svg>
