<svg xmlns="http://www.w3.org/2000/svg" viewBox="0 0 1000.97 604.54"><defs><style>.cls-1{fill:#f5f5f5;}.cls-2{fill:#e0e0e0;}.cls-3{fill:#ebebeb;}.cls-4{fill:#fff;}.cls-5{fill:#fafafa;}.cls-6{fill:#00acb1;}.cls-7{opacity:0.3;}.cls-8{fill:#263238;}.cls-9{fill:#ffbe9d;}.cls-10{fill:#455a64;}.cls-11{fill:#eb996e;}.cls-12{fill:#e8505b;}.cls-13{fill:#b78876;}.cls-14{fill:#aa6550;}.cls-15{fill:#ffe5d4;}</style></defs><title>Asset 4</title><g id="Layer_2" data-name="Layer 2"><g id="Layer_1-2" data-name="Layer 1"><path class="cls-1" d="M865.22,599.62c-35.83-21.94-46.32-66-47.38-106.21-.18-6.7-1.34-13.71,1.49-19.77s10-10.52,16.17-8.06c5.11,2,7.62,7.68,10.69,12.29a39.18,39.18,0,0,0,16.59,14c4.4,2,9.75,3,13.81.42,5.58-3.54,5.78-11.55,5.34-18.2q-1.24-18.6-2.48-37.18c-.44-6.65-.87-13.45.82-19.89s5.9-12.58,12.12-14.73,14.27,1,16,7.45c.72,2.68.34,5.52.69,8.27s1.82,5.73,4.49,6.34,5.26-1.42,7.13-3.49c6.46-7.13,10.6-16.07,14.43-24.94s7.53-17.93,13.32-25.63,14.06-14,23.55-15.15,20,4.16,23,13.37-1.92,19.08-7.42,27a148.57,148.57,0,0,1-29.14,31.34c-2,1.61-4.18,3.36-4.83,5.87-1.18,4.52,3.29,8.68,7.75,9.87,5.06,1.35,10.41.51,15.64.81s11,2.25,13.24,7c3.13,6.64-2.12,14.11-7.44,19.11a127.25,127.25,0,0,1-36.34,24c-4.78,2.09-9.84,4-13.58,7.65s-5.76,9.8-3.09,14.34,8.88,5.68,14,4.41,9.49-4.32,14.26-6.45c8.93-4,20.78-4.09,27.11,3.46,4.17,5,4.94,12.17,3.37,18.48s-5.2,11.88-9.1,17c-13.61,18.08-31.54,33.05-52.3,41.69s-40.3,11.81-61.84,5.37"/><path class="cls-2" d="M874.05,573.88c4.67-20.58,11.67-42.72,19.79-65.62l6.07-16.93c2-5.55,4-11.06,6.27-16.32A297.4,297.4,0,0,1,921,445.5c5.17-9.16,10.41-17.66,15.36-25.58s9.75-15.18,14.39-21.64a236.61,236.61,0,0,1,24.12-28.78c3.1-3.17,5.59-5.54,7.3-7.13l2-1.79a5.08,5.08,0,0,1,.7-.58,6.07,6.07,0,0,1-.61.67l-1.87,1.88c-1.65,1.65-4.08,4.08-7.13,7.29a250.6,250.6,0,0,0-23.76,29c-4.58,6.46-9.3,13.76-14.23,21.67s-10.11,16.45-15.24,25.6a301,301,0,0,0-14.7,29.42c-2.26,5.24-4.22,10.7-6.23,16.27S897,503,895,508.68c-8.11,22.88-15.12,44.95-19.85,65.46"/><path class="cls-2" d="M906.53,474.94a13.06,13.06,0,0,1-.83-2.8c-.46-1.82-1-4.47-1.7-7.75-1.34-6.57-2.88-15.7-4.55-25.78s-3.32-19.17-4.76-25.69c-.71-3.27-1.31-5.91-1.75-7.73a13.57,13.57,0,0,1-.55-2.86,12.25,12.25,0,0,1,1,2.74c.58,1.78,1.31,4.39,2.13,7.65,1.66,6.5,3.47,15.59,5.13,25.68s3.07,19,4.19,25.82c.52,3.11,1,5.72,1.32,7.82A13.63,13.63,0,0,1,906.53,474.94Z"/><path class="cls-2" d="M991.1,453.79a18.69,18.69,0,0,1-3.39.61c-2.18.33-5.34.79-9.23,1.48-7.78,1.32-18.47,3.52-30.16,6.46s-22.14,6.09-29.64,8.57c-3.76,1.22-6.78,2.28-8.87,3a18.43,18.43,0,0,1-3.28,1,18.13,18.13,0,0,1,3.12-1.48c2-.86,5-2,8.75-3.38,7.45-2.7,17.91-6,29.63-8.95A301.5,301.5,0,0,1,978.35,455c3.91-.58,7.1-.91,9.31-1.08A17.88,17.88,0,0,1,991.1,453.79Z"/><path class="cls-2" d="M875,572.24a4.37,4.37,0,0,1-.65-1l-1.65-3c-1.42-2.61-3.37-6.45-5.73-11.23-4.72-9.55-10.82-23-17.35-37.82s-12.51-28.31-17-37.95l-5.38-11.4c-.58-1.24-1.06-2.26-1.45-3.11a4.17,4.17,0,0,1-.43-1.12,4.37,4.37,0,0,1,.65,1l1.65,3c1.42,2.62,3.38,6.46,5.74,11.24,4.71,9.55,10.82,22.94,17.35,37.82s12.51,28.31,17,38L873.13,568c.57,1.25,1,2.28,1.44,3.12A4.17,4.17,0,0,1,875,572.24Z"/><path class="cls-2" d="M986.46,528.75a4.92,4.92,0,0,1-1.1.53l-3.24,1.3-11.93,4.68c-10.08,4-23.93,9.58-39.23,15.81s-29.22,11.73-39.38,15.47c-5.08,1.88-9.21,3.35-12.08,4.31l-3.31,1.09a4.37,4.37,0,0,1-1.19.3,5.16,5.16,0,0,1,1.1-.54l3.24-1.3,11.93-4.68c10.07-4,23.93-9.57,39.23-15.8s29.22-11.73,39.38-15.48c5.08-1.87,9.21-3.35,12.08-4.31l3.31-1.09A4.54,4.54,0,0,1,986.46,528.75Z"/><path class="cls-1" d="M883,143.55c-6.11,15.29-15.89,40-20.38,51.38a6.53,6.53,0,0,0,3.66,8.48l41.79,16.64a6.53,6.53,0,0,0,8.49-3.65l20.28-50.91a14.52,14.52,0,0,0-8.11-18.85h0l3-7.49-27.37-10.9-2.82,7.08-.1,0A14.51,14.51,0,0,0,883,143.55Z"/><polygon class="cls-2" points="903.96 129.2 902.61 132.6 929.59 144.48 931.33 140.1 903.96 129.2"/><path class="cls-3" d="M904.36,122.76h30.36a3,3,0,0,1,3,3v9.7a1.93,1.93,0,0,1-1.93,1.93H903.3a1.93,1.93,0,0,1-1.93-1.93v-9.7a3,3,0,0,1,3-3Z" transform="translate(113.39 -331.01) rotate(21.72)"/><path class="cls-2" d="M904.25,131.91c-.2-.08.85-3.17,2.33-6.91s2.86-6.69,3.06-6.62-.85,3.18-2.34,6.91S904.45,132,904.25,131.91Z"/><path class="cls-2" d="M907.86,133.35c-.2-.08.84-3.17,2.33-6.91s2.86-6.7,3-6.62-.84,3.17-2.33,6.91S908.06,133.43,907.86,133.35Z"/><path class="cls-2" d="M911.46,134.78c-.19-.08.85-3.17,2.34-6.9s2.85-6.7,3.05-6.62-.85,3.17-2.33,6.9S911.66,134.86,911.46,134.78Z"/><path class="cls-2" d="M915.07,136.22c-.2-.08.85-3.17,2.33-6.91s2.86-6.69,3.06-6.62-.85,3.17-2.34,6.91S915.27,136.3,915.07,136.22Z"/><path class="cls-2" d="M918.68,137.66c-.2-.08.84-3.18,2.33-6.91s2.86-6.7,3-6.62-.84,3.17-2.33,6.91S918.88,137.73,918.68,137.66Z"/><path class="cls-2" d="M922.28,139.09c-.19-.08.85-3.17,2.34-6.9s2.85-6.7,3-6.62-.85,3.17-2.33,6.9S922.48,139.17,922.28,139.09Z"/><path class="cls-2" d="M925.89,140.53c-.2-.08.85-3.17,2.34-6.91s2.85-6.7,3-6.62-.85,3.17-2.34,6.91S926.09,140.61,925.89,140.53Z"/><path class="cls-2" d="M929.5,142c-.2-.08.84-3.18,2.33-6.91s2.86-6.7,3-6.62-.84,3.17-2.33,6.91S929.7,142,929.5,142Z"/><rect class="cls-3" x="881.05" y="160.78" width="42.21" height="27.92" rx="1.48" transform="translate(128.69 -321.41) rotate(21.72)"/><path class="cls-2" d="M914.68,192.69a2.41,2.41,0,0,1,.14-.44l.45-1.22q.63-1.68,1.74-4.58l6.35-16.39.17.4-34.4-13.61.5-.22h0v0l0,.05,0,.1-.08.18-.15.38-.3.74-.59,1.49-1.17,2.94L885,168.3l-4.34,10.84-.2-.47,24.6,10,7.08,2.92,1.9.8.67.31a3.08,3.08,0,0,1-.63-.2l-1.86-.69-7.07-2.72-25-9.75-.33-.12.13-.34c1.37-3.45,2.81-7.08,4.3-10.85q1.13-2.82,2.28-5.75c.39-1,.78-2,1.17-2.94l.6-1.49.29-.75.15-.37.08-.19,0-.09,0-.05v0h0l.51-.22,34.34,13.76.29.12-.12.28-6.72,16.44q-1.19,2.82-1.86,4.46l-.49,1.14A2.06,2.06,0,0,1,914.68,192.69Z"/><path class="cls-2" d="M915.42,175.35c-.08.2-5.37-1.73-11.82-4.3s-11.62-4.81-11.54-5,5.38,1.73,11.83,4.3S915.5,175.15,915.42,175.35Z"/><path class="cls-2" d="M913.84,179.32c-.08.2-5.37-1.73-11.82-4.29s-11.62-4.82-11.54-5,5.37,1.73,11.83,4.3S913.92,179.12,913.84,179.32Z"/><path class="cls-2" d="M912.32,183.13c-.08.2-5.37-1.72-11.82-4.29s-11.62-4.81-11.54-5,5.37,1.72,11.83,4.29S912.4,182.93,912.32,183.13Z"/><path class="cls-2" d="M927.26,145.78c-.08.2-5.85-1.92-12.89-4.72s-12.68-5.24-12.61-5.44,5.85,1.92,12.9,4.72S927.34,145.58,927.26,145.78Z"/><path class="cls-4" d="M866.05,192.88a17,17,0,0,1,.83-2.46l2.52-6.61c2.16-5.56,5.19-13.23,8.59-21.69,1.7-4.21,3.33-8.23,4.82-11.9s3.19-6.93,5.42-9a11.4,11.4,0,0,1,6.31-3.22,8.39,8.39,0,0,1,2,0,2.6,2.6,0,0,1,.66.16,16.19,16.19,0,0,0-2.56.15,11.57,11.57,0,0,0-6,3.31c-2.1,2.07-3.72,5.26-5.15,8.91l-4.77,11.93c-3.39,8.46-6.51,16.09-8.8,21.61l-2.75,6.51A15.83,15.83,0,0,1,866.05,192.88Z"/><path class="cls-4" d="M913,219.76a10.72,10.72,0,0,1-1.64-1.33c-.51-.45-1.13-1-1.89-1.59s-1.58-1.31-2.57-2a73.07,73.07,0,0,0-7.08-4.69,78.37,78.37,0,0,0-9.35-4.54,77.21,77.21,0,0,0-9.91-3.13A72.38,72.38,0,0,0,872.2,201c-1.2-.17-2.29-.22-3.25-.3s-1.79-.13-2.47-.15a11.13,11.13,0,0,1-2.1-.16,10.34,10.34,0,0,1,2.11-.14c.68,0,1.51,0,2.48,0s2.08.06,3.29.2a62.16,62.16,0,0,1,8.47,1.31,66.46,66.46,0,0,1,19.46,7.74,65.22,65.22,0,0,1,7,4.88c1,.73,1.79,1.48,2.52,2.12a22.75,22.75,0,0,1,1.81,1.69A11.38,11.38,0,0,1,913,219.76Z"/><rect class="cls-2" x="46.29" y="226.96" width="134.8" height="185.16" rx="2.41" transform="translate(-127.34 80.93) rotate(-25.7)"/><rect class="cls-5" x="52.75" y="231.15" width="119.74" height="172.36" transform="translate(-126.49 80.25) rotate(-25.7)"/><path class="cls-3" d="M98.32,231.47A14.66,14.66,0,0,0,83,229.87l-3.31-6.56a10.06,10.06,0,0,0-13.45-4.71h0a10.07,10.07,0,0,0-4.71,13.45l3.32,6.89-2.3,1.15A14.67,14.67,0,0,0,54.43,253l0,3.42,47-22.61Zm-25.07,1.07a5.42,5.42,0,1,1,2.53-7.24A5.43,5.43,0,0,1,73.25,232.54Z"/><path class="cls-2" d="M71.88,268.4c.09.19-6.38,3.5-14.46,7.39s-14.7,6.89-14.8,6.69S49,279,57.09,275.09,71.79,268.21,71.88,268.4Z"/><path class="cls-2" d="M59.1,280.63c.09.19-3,1.87-6.88,3.74s-7.13,3.24-7.22,3.05,3-1.87,6.88-3.74S59,280.44,59.1,280.63Z"/><path class="cls-2" d="M134.45,261.29c.09.2-18.06,9.13-40.54,19.95S53.12,300.68,53,300.49s18-9.12,40.54-19.95S134.36,261.1,134.45,261.29Z"/><path class="cls-2" d="M138.19,269.06c.09.19-18.06,9.12-40.54,19.94s-40.79,19.44-40.89,19.25,18.06-9.12,40.55-19.94S138.09,268.87,138.19,269.06Z"/><path class="cls-2" d="M141.92,276.82c.1.19-18.06,9.13-40.54,19.95S60.59,316.21,60.5,316s18.06-9.13,40.55-19.95S141.83,276.63,141.92,276.82Z"/><path class="cls-2" d="M145.66,284.59c.09.19-18.06,9.12-40.54,19.94S64.33,324,64.24,323.78s18.06-9.12,40.54-19.95S145.57,284.39,145.66,284.59Z"/><path class="cls-2" d="M149.4,292.35c.09.19-18.06,9.12-40.54,19.94S68.07,331.74,68,331.54s18-9.12,40.54-19.94S149.31,292.16,149.4,292.35Z"/><path class="cls-2" d="M153.14,300.12c.09.19-18.06,9.12-40.55,19.94S71.81,339.5,71.71,339.31s18.06-9.12,40.55-19.95S153,299.92,153.14,300.12Z"/><path class="cls-2" d="M115.79,326.71a7.37,7.37,0,0,1-1.53.91L110,329.83c-3.65,1.84-8.72,4.32-14.34,7S84.88,342,81.16,343.69l-4.41,2a7.45,7.45,0,0,1-1.67.64,8.1,8.1,0,0,1,1.54-.91l4.31-2.21c3.65-1.83,8.72-4.32,14.34-7s10.73-5.11,14.44-6.82l4.42-2A7.72,7.72,0,0,1,115.79,326.71Z"/><path class="cls-2" d="M128.64,240.21c.1.19-2.75,1.75-6.35,3.49s-6.6,3-6.69,2.79,2.75-1.76,6.35-3.49S128.55,240,128.64,240.21Z"/><path class="cls-2" d="M105.43,352.54c.1.19-4.56,2.63-10.4,5.44s-10.65,4.93-10.75,4.74,4.57-2.63,10.41-5.44S105.34,352.35,105.43,352.54Z"/><path class="cls-2" d="M109.53,359.25c.09.19-4.64,2.67-10.58,5.52s-10.83,5-10.92,4.83,4.64-2.67,10.58-5.52S109.44,359.06,109.53,359.25Z"/><path class="cls-2" d="M166.26,322c.09.19-2.13,1.45-4.95,2.81s-5.18,2.3-5.28,2.11,2.12-1.45,4.95-2.81S166.16,321.77,166.26,322Z"/><path class="cls-2" d="M169.66,328.14c.09.19-2.12,1.45-4.94,2.8s-5.19,2.31-5.28,2.12,2.12-1.45,4.94-2.81S169.57,327.94,169.66,328.14Z"/><path class="cls-2" d="M103.22,371.4c.1.19-2,1.41-4.76,2.73s-5,2.22-5.1,2,2-1.41,4.76-2.72S103.13,371.21,103.22,371.4Z"/><path class="cls-2" d="M173.58,335.37c.09.19-1.49,1.14-3.54,2.13s-3.77,1.62-3.86,1.43,1.48-1.15,3.53-2.13S173.49,335.18,173.58,335.37Z"/><path class="cls-2" d="M100.75,393.18a2.13,2.13,0,0,1,.41-.31l1.25-.84c1.18-.75,2.79-1.78,4.8-3.08l17.25-10.82.34-.21.14.37a9.69,9.69,0,0,1,.19,6.54,8,8,0,0,1-4.75,5.15,7.91,7.91,0,0,1-7.34-.83,6.88,6.88,0,0,1-2.46-7.23,6.18,6.18,0,0,1,1.42-2.7,3.45,3.45,0,0,1,.55-.53,3,3,0,0,1,.68-.46,1.08,1.08,0,0,1,1,0,1.62,1.62,0,0,1,.59.69,12.84,12.84,0,0,1,1.51,5.49,13.21,13.21,0,0,1-.84,5.43,8.33,8.33,0,0,1-3.2,4.24,4.75,4.75,0,0,1-5-.12,7.11,7.11,0,0,1-3-3.72c-1-3-.36-5.91,0-8.39l.1-.56.38.42a11.69,11.69,0,0,1,2.83,6.41,12.26,12.26,0,0,1-.5,5.26,11.05,11.05,0,0,1-1.49,3c-.23.31-.43.52-.56.67s-.2.22-.21.21a13.86,13.86,0,0,0,2-4,12.36,12.36,0,0,0,.36-5.12,11.27,11.27,0,0,0-2.81-6.09l.48-.14c-.38,2.49-.92,5.32,0,8.09a6.59,6.59,0,0,0,2.72,3.35,4.07,4.07,0,0,0,4.3.09,7.58,7.58,0,0,0,2.87-3.89,12.55,12.55,0,0,0-.64-10.29,1.17,1.17,0,0,0-.31-.4.35.35,0,0,0-.33,0,3.94,3.94,0,0,0-1,.81,5.48,5.48,0,0,0-1.24,2.36,6.15,6.15,0,0,0,2.16,6.43,7.23,7.23,0,0,0,11-3.92,9,9,0,0,0-.13-6.07l.49.16-17.39,10.59-4.9,2.92-1.3.75A1.71,1.71,0,0,1,100.75,393.18Z"/><path class="cls-2" d="M177.87,355.74a4.66,4.66,0,0,1-.25,1.39,5.57,5.57,0,0,1-.67,1.58,3.37,3.37,0,0,1-1.86,1.42,2.41,2.41,0,0,1-1.45-.05,2.84,2.84,0,0,1-1.23-1,26.38,26.38,0,0,1-1.67-2.83l-3.69-6.73.67-.16c-.12,3.4-.25,7.12-.38,11,0,.93-.07,1.85-.11,2.75l-.06,1.54-.67-1.38c-2-4.18-3.92-8.07-5.58-11.47l.62-.06a39.31,39.31,0,0,0-1.41,10.36c0,2.53.17,4,.08,4a4.21,4.21,0,0,1-.21-1,28.16,28.16,0,0,1-.26-3,36.51,36.51,0,0,1,1.16-10.54l.22-.86.4.8c1.68,3.38,3.61,7.26,5.67,11.42l-.73.15c0-.9.07-1.82.1-2.74.16-3.9.31-7.61.45-11l.05-1.33.62,1.17c1.3,2.46,2.5,4.74,3.59,6.79a31.7,31.7,0,0,0,1.55,2.8,2,2,0,0,0,2.16.91,3.8,3.8,0,0,0,2.42-2.64A8.92,8.92,0,0,1,177.87,355.74Z"/><path class="cls-2" d="M177.71,350.17c.12.18-6,4.56-13.69,9.78s-14,9.32-14.12,9.14,6-4.55,13.69-9.78S177.59,350,177.71,350.17Z"/><path class="cls-2" d="M185.24,351.48c.14.16-4.35,4.25-10,9.13s-10.4,8.72-10.54,8.56,4.36-4.26,10-9.14S185.1,351.31,185.24,351.48Z"/><path class="cls-1" d="M239.58,31.49h-6.25l-13.64-19V0S210-.59,211.16,15.75s-.09,12.17-.09,12.17-20.51.08-22.22,1.86c-1.24,1.3-1.8,21.68-2,32.73-.11,5.56,3.3,10.74,8.48,12.05a8.76,8.76,0,0,0,2.2.3c5.12,0,31.26-4.16,31.26-4.16h10.8Z"/><polygon class="cls-1" points="257.47 28.06 253.63 70.81 242.92 70.81 242.92 28.92 257.47 28.06"/><path class="cls-6" d="M721.74,35.28c-1.62-13-12.62-25.14-25.73-25.14-7.74,0-15.1,4-20.39,9.69A53.68,53.68,0,0,0,670.45,26a53.19,53.19,0,0,0-3.86-7c-4.07-6.58-10.49-12-18.08-13.52-12.85-2.57-26,7.16-30.17,19.59s-.69,26.4,6.12,37.59S643,88.43,664.61,95.69c14.89-1.91,34.85-15.12,43.73-24.76S723.35,48.28,721.74,35.28Z"/><path class="cls-5" d="M717,58.64h-.43l-1.26-.08-4.86-.4-17.82-1.63.32-.2-7.43,19.36-.45,1.17-.29-1.22-7.47-31q-1.23-5.16-2.42-10.12l.76.15L662.05,53.37l-.13.18-.22,0-31.32-3.27-8.86-1L619.17,49a3.48,3.48,0,0,1-.8-.15,4.61,4.61,0,0,1,.82,0l2.35.18,8.89.77,31.35,3-.35.16L675,34.17l.54-.75.22.9q1.18,4.95,2.42,10.11c2.65,11.1,5.16,21.63,7.4,31l-.74,0,7.57-19.3.09-.23.23,0,17.8,1.91,4.83.56,1.26.17A1.21,1.21,0,0,1,717,58.64Z"/><rect class="cls-6" x="389.44" y="116.49" width="9.81" height="43.95"/><rect class="cls-6" x="389.44" y="116.49" width="9.81" height="43.95" transform="translate(255.88 532.8) rotate(-90)"/><path class="cls-6" d="M430.84,138.57a3.43,3.43,0,0,1-.07-.59c0-.43-.07-1-.13-1.74,0-.39-.05-.81-.08-1.28s-.15-1-.24-1.53a27.78,27.78,0,0,0-.77-3.77,34.92,34.92,0,0,0-4.07-9.69,36.55,36.55,0,0,0-9.27-10.3,36.22,36.22,0,0,0-34.36-5.17,36.54,36.54,0,0,0-4.73,2.08,37.72,37.72,0,0,0-4.45,2.86,33.33,33.33,0,0,0-7.66,7.7,35.13,35.13,0,0,0-5.18,10,35.9,35.9,0,0,0,0,22.87A34.87,34.87,0,0,0,365,160a40.09,40.09,0,0,0,3.55,4.21,40.91,40.91,0,0,0,4.11,3.5,33.35,33.35,0,0,0,9.18,4.94,36.4,36.4,0,0,0,43.63-15.48,34.87,34.87,0,0,0,4.07-9.68,27.59,27.59,0,0,0,.77-3.78c.09-.55.19-1.06.24-1.52s.06-.9.08-1.28c.06-.74.1-1.31.13-1.74a3.43,3.43,0,0,1,.07-.59,3.3,3.3,0,0,1,0,.59c0,.43,0,1-.05,1.75l-.05,1.29c0,.47-.13,1-.2,1.54a26.16,26.16,0,0,1-.71,3.81,34.44,34.44,0,0,1-4,9.83A36.9,36.9,0,0,1,401,174.87a37,37,0,0,1-19.42-1.56,38,38,0,0,1-4.83-2.11,37.24,37.24,0,0,1-4.55-2.91,42.54,42.54,0,0,1-4.2-3.56,40.52,40.52,0,0,1-3.63-4.29,35.41,35.41,0,0,1-5.3-10.19,36.7,36.7,0,0,1,0-23.37,35.93,35.93,0,0,1,5.3-10.19,34.18,34.18,0,0,1,7.83-7.85,38.39,38.39,0,0,1,4.55-2.9,38,38,0,0,1,4.83-2.11A37,37,0,0,1,401,102.27a36.85,36.85,0,0,1,24.82,17.48,34.6,34.6,0,0,1,4,9.84,26.16,26.16,0,0,1,.71,3.81c.07.56.16,1.07.2,1.54l.05,1.29c0,.74,0,1.31.05,1.74A3.39,3.39,0,0,1,430.84,138.57Z"/><path class="cls-6" d="M883.17,441.25s43.47-10.36,44.9-12.19L892.32,337a67.3,67.3,0,0,0-41.69-40.63c-23.23-7.9-42.22-6.52-42.22-6.52l-60.35-3.2a119.35,119.35,0,0,0-47.61,13.17,96.11,96.11,0,0,0-44.7,49.27l-27,67.6L697,431l2.59,72.62L689.26,603.8H877.75L876.44,445h0Z"/><g class="cls-7"><path class="cls-4" d="M920.64,417c.06.2-11.22,3.88-25.19,8.21s-25.35,7.68-25.42,7.48,11.22-3.89,25.19-8.22S920.57,416.83,920.64,417Z"/></g><path class="cls-8" d="M723.43,352.31a10.26,10.26,0,0,1-1.16-1.59c-.69-1.05-1.75-2.53-3.11-4.31a74.56,74.56,0,0,0-5.12-6,79,79,0,0,0-7.08-6.53,79.82,79.82,0,0,0-7.88-5.55,76.76,76.76,0,0,0-6.93-3.74c-2-1-3.7-1.68-4.88-2.13a10.12,10.12,0,0,1-1.79-.8,9.92,9.92,0,0,1,1.9.52,49.79,49.79,0,0,1,5,1.91,65,65,0,0,1,7.08,3.63,73.54,73.54,0,0,1,8,5.55,74.66,74.66,0,0,1,7.11,6.65,63.87,63.87,0,0,1,5,6.15,51.83,51.83,0,0,1,2.93,4.48A9.37,9.37,0,0,1,723.43,352.31Z"/><path class="cls-8" d="M714.53,374.28c.21,0-1.89,22.2-4.7,49.53s-5.26,49.47-5.47,49.45,1.89-22.2,4.7-49.53S714.32,374.26,714.53,374.28Z"/><path class="cls-8" d="M862.92,333.18a42.7,42.7,0,0,1-1-4.49,82.15,82.15,0,0,0-3-10.64,83.84,83.84,0,0,0-4.45-10.12,42.91,42.91,0,0,1-2.11-4.09s.32.32.78,1,1.08,1.62,1.81,2.85a63.11,63.11,0,0,1,4.69,10.13,62.09,62.09,0,0,1,2.81,10.79c.23,1.41.37,2.56.42,3.36A3.49,3.49,0,0,1,862.92,333.18Z"/><path class="cls-8" d="M866.7,410.72a12.58,12.58,0,0,1-.37-2.18c-.18-1.4-.41-3.45-.66-6-.49-5.05-1-12.05-1.28-19.8s-.25-14.77-.11-19.85c.07-2.53.15-4.59.24-6a11.74,11.74,0,0,1,.21-2.19,12.68,12.68,0,0,1,.09,2.2c0,1.56,0,3.58,0,6,0,5.07.07,12.08.34,19.81s.7,14.73,1.05,19.79c.17,2.42.31,4.44.41,6A11.93,11.93,0,0,1,866.7,410.72Z"/><path class="cls-4" d="M775.45,397.76a310.52,310.52,0,0,1-47.54-.89V403h47.54Z"/><g class="cls-7"><path class="cls-4" d="M822.73,295.05a6.12,6.12,0,0,1,.18.94c.1.67.24,1.58.41,2.74.3,2.4.72,5.92,1.06,10.39.71,8.92,1.33,21.61,1.55,36.59v.57l-.51-.25c-9.48-4.61-20.11-9.63-31.17-15.16l-54-27-16.32-8.27-4.42-2.28-1.14-.61c-.26-.15-.39-.22-.38-.24a2.1,2.1,0,0,1,.41.17l1.18.54,4.49,2.15,16.44,8.06,54.12,26.83c11,5.52,21.66,10.56,31.11,15.2l-.5.32c-.16-15-.68-27.64-1.27-36.56-.28-4.46-.63-8-.86-10.39-.13-1.16-.23-2.08-.31-2.75A5.73,5.73,0,0,1,822.73,295.05Z"/></g><g class="cls-7"><path class="cls-4" d="M709.25,423.37a3.27,3.27,0,0,1-.79-.14l-2.22-.53-8.12-2.06c-6.86-1.76-16.33-4.16-26.83-6.7s-20-4.73-26.93-6.3l-8.16-1.88-2.22-.54a2.8,2.8,0,0,1-.76-.24,3.87,3.87,0,0,1,.79.09l2.25.4c1.94.36,4.75.91,8.22,1.63,6.93,1.44,16.49,3.55,27,6.09s20,5,26.79,6.92c3.41.94,6.16,1.73,8.06,2.3l2.18.67A2.83,2.83,0,0,1,709.25,423.37Z"/></g><path class="cls-8" d="M814.43,283.81c.07-.22,4.08,1.93,8,7.76S830,306.4,832,316.77a103.89,103.89,0,0,1,1.73,14.79c0,2.28.1,4.46,0,6.49s-.14,3.92-.32,5.64-.34,3.25-.49,4.63-.42,2.52-.59,3.47a11.52,11.52,0,0,1-.7,2.92,10.8,10.8,0,0,1,.1-3q.13-1.48.33-3.48c.08-1.37.17-2.92.26-4.61s.07-3.58.13-5.59-.11-4.15-.17-6.41a117.77,117.77,0,0,0-1.83-14.55c-2-10.2-5.43-19.13-9-24.91a35.57,35.57,0,0,0-5-6.3A27.64,27.64,0,0,1,814.43,283.81Z"/><path class="cls-8" d="M746.9,284.24c.15.13-1.1,1.65-3.14,4.52a62.75,62.75,0,0,0-7,13.05,89.5,89.5,0,0,0-5.19,21.35c-1.08,8.24-1.55,17.44-2.15,27.08s-.53,18.82-.54,27.19,0,15.9,0,22.26-.16,11.48-.35,15-.39,5.5-.55,5.49-.26-2-.35-5.5-.23-8.72-.39-15-.37-13.88-.49-22.27-.14-17.62.36-27.33,1.13-18.88,2.35-27.25a85.49,85.49,0,0,1,5.79-21.67,54.82,54.82,0,0,1,7.79-13C745.34,285.47,746.81,284.15,746.9,284.24Z"/><path class="cls-8" d="M846.76,408.4a28.53,28.53,0,0,1-.29-4.9c-.09-3.16-.17-7.73-.23-13.38,0-2.83,0-5.92-.08-9.24s.06-6.89-.2-10.54-1.21-7.46-3.79-10.37a14.24,14.24,0,0,0-10.47-5,16.4,16.4,0,0,0-10.94,4.25,18.78,18.78,0,0,0-5.53,9.64c-.92,3.53-1.31,7.08-1.86,10.36s-1,6.32-1.45,9.12c-.89,5.58-1.64,10.09-2.2,13.2a30.2,30.2,0,0,1-1,4.8,29.33,29.33,0,0,1,.42-4.89c.37-3.14,1-7.67,1.71-13.27.39-2.8.81-5.87,1.26-9.15s.83-6.82,1.75-10.53a20,20,0,0,1,5.9-10.41,17.75,17.75,0,0,1,12-4.66,15.77,15.77,0,0,1,11.59,5.5c2.86,3.28,3.82,7.51,4.06,11.26s.06,7.33.07,10.65-.08,6.41-.11,9.24c-.08,5.65-.17,10.22-.27,13.38A29.52,29.52,0,0,1,846.76,408.4Z"/><path class="cls-8" d="M832.43,340.49c-.48,5.2-2.15,11-5.76,14.81a20.81,20.81,0,0,1,9.58.19c-2.25-4.51-2.61-10-2.55-15"/><path class="cls-8" d="M846.81,374.28c-.28.05-.45-2.49-2.35-5.89a18.36,18.36,0,0,0-4.32-5.17,16.13,16.13,0,0,0-7.31-3.48,15.66,15.66,0,0,0-8,.81A17.65,17.65,0,0,0,819,364c-2.89,2.62-3.83,5-4.09,4.86s.45-2.63,3.33-5.64a17.25,17.25,0,0,1,6-4,16.32,16.32,0,0,1,8.83-1,16.64,16.64,0,0,1,8,3.92,17.81,17.81,0,0,1,4.36,5.74C847.19,371.65,847,374.31,846.81,374.28Z"/><path class="cls-9" d="M886.56,542.54c8.84,0,16.75-6.37,20.91-14.17s5.22-16.87,5.63-25.71a208.68,208.68,0,0,0-8.5-69.37l-38.76,6.77,10.55,104.4Z"/><polygon class="cls-8" points="729.77 555.54 855.98 550.94 886.59 403.04 753.66 410.43 729.77 555.54"/><path class="cls-10" d="M794.74,407.89l1.9-3.77,10.07-.74s2.56-6.61,16.95-7.28c12.91-.61,13.43,5.88,13.43,5.88h7v3.17Z"/><path class="cls-9" d="M865.11,507.88l9.57-2.79a11.67,11.67,0,0,1,5.54-.24h0a11.64,11.64,0,0,1,5.93,3.13c3.17,3.12,8.28,8.28,9,9.81,1.07,2.25,1.07,6.14,0,7.57s2.35,8.8,1.92,11.25-1.06,4.91-1.92,5.93,0,4.53-2.13,7.17A35.5,35.5,0,0,1,889,554s-26.28,1.23-28.85,0-7.05-5.93-7.05-5.93-2.35-4.3,1.29-4.71l-15-5.73a3.53,3.53,0,0,1-2.17-4.48,2.44,2.44,0,0,1,1.32-1.45s-6.72-2.12-8.27-2.81c-3.11-1.37-4.28-8.59,2.14-7.67,3.4.49,8,1.48,8,1.48s-2.45-4,1-6.36c2.08-1.44,11.44.32,11.44.32l12.3-8.78Z"/><path class="cls-11" d="M868.44,547.32c0,.21-3.57,0-7.77-1.16s-7.28-3-7.16-3.23,3.23,1.35,7.37,2.49S868.46,547.1,868.44,547.32Z"/><path class="cls-11" d="M862.72,538c-.05.21-5.51-1-12.19-2.71s-12.06-3.26-12-3.46,5.51,1,12.2,2.71S862.78,537.78,862.72,538Z"/><path class="cls-11" d="M865.84,528.69c-.05.2-5.93-1-13.14-2.68s-13-3.22-13-3.43,5.93,1,13.13,2.68S865.88,528.48,865.84,528.69Z"/><path class="cls-11" d="M875.56,516.71a15.59,15.59,0,0,1-3.37,1.08l-3.71,1-2.2.54a8.16,8.16,0,0,1-2.53.24,14.52,14.52,0,0,1-2.46-.4l-2.21-.5-3.72-.9a15.66,15.66,0,0,1-3.4-1,16.46,16.46,0,0,1,3.52.49l3.76.73a43,43,0,0,0,4.56.83,17.13,17.13,0,0,0,4.5-.7l3.76-.8A17,17,0,0,1,875.56,516.71Z"/><path class="cls-11" d="M877.25,521.75c.08-.06.44.27.72,1a4.41,4.41,0,0,1-1.65,5.29c-.64.41-1.12.48-1.15.39s1.55-1,2.17-3S877.05,521.83,877.25,521.75Z"/><path class="cls-11" d="M876.7,531.9c.19-.08.78,1,.7,2.41s-.79,2.43-1,2.33.13-1.11.19-2.37S876.49,532,876.7,531.9Z"/><path class="cls-11" d="M876.86,542.93c.19-.07.59.64.4,1.57s-.82,1.44-1,1.3.09-.72.22-1.45S876.65,543,876.86,542.93Z"/><path class="cls-11" d="M879.72,516.11a8.48,8.48,0,0,1-2.53-.13l-2.7-.35a10.1,10.1,0,0,0-3.22-.16,7.78,7.78,0,0,0-2.85,1.29c-.83.55-1.54,1.16-2.24,1.57a4.22,4.22,0,0,1-2.42.83c0-.13.9-.39,2.12-1.28s2.71-2.64,5.29-3.18a10,10,0,0,1,1.81,0c.6.06,1.1.18,1.62.26l2.68.52A7.81,7.81,0,0,1,879.72,516.11Z"/><path class="cls-11" d="M894.9,543a14.68,14.68,0,0,1,.67-1.89,14.5,14.5,0,0,0,1.06-5.24,15.16,15.16,0,0,0-.56-3.65c-.31-1.3-.91-2.6-1.24-4.17s.11-3.29.32-4.85a8.52,8.52,0,0,0-.86-4.78,22.35,22.35,0,0,0-2.73-4.23c-1-1.3-2-2.55-3-3.68a17.47,17.47,0,0,0-6.22-4.87,10.15,10.15,0,0,0-5.22-.79c-1.26.17-1.9.51-1.93.44s.14-.12.45-.27a6.14,6.14,0,0,1,1.43-.46,9.78,9.78,0,0,1,5.48.58,17.46,17.46,0,0,1,6.54,4.89c1,1.15,2,2.39,3.09,3.69a22.6,22.6,0,0,1,2.84,4.38,9.24,9.24,0,0,1,.9,5.19c-.24,1.7-.7,3.2-.37,4.63s.87,2.8,1.16,4.14a15.09,15.09,0,0,1,.49,3.81,13.63,13.63,0,0,1-1.33,5.35A7.91,7.91,0,0,1,894.9,543Z"/><path class="cls-9" d="M806.55,469.88,702.92,486.34l4.6-54.09-57.63-11.13-7,80.07-1.21,18.36a35.83,35.83,0,0,0,15,31.6h0A35.82,35.82,0,0,0,688.52,556l22.27-7.26L819.4,510.08"/><path class="cls-9" d="M869.25,458.72a2.94,2.94,0,0,0-3-3.46c-5.84,0-21.62.07-27.19,1.65-6.89,1.95-32.56,13-32.56,13l10.88,40.18,39.41.42s14.39-6.62,14.57-9.48a49.2,49.2,0,0,0-.36-5.36l4.35-2.33c6.47-4.11,2.32-12,2.32-12s4.46-2.5,4.69-7a7,7,0,0,0-3.47-6.65s1.78-6.35-1.54-8.06-8.93.48-8.93.48A2.34,2.34,0,0,0,869.25,458.72Z"/><path class="cls-11" d="M871.52,459.39a4.19,4.19,0,0,1-1.21.42c-.79.22-2,.48-3.41.73-2.89.52-6.92.95-11.36,1.43a95.08,95.08,0,0,0-11.25,1.71c-2.84.67-4.42,1.55-4.49,1.43a4.28,4.28,0,0,1,1.08-.7,20.33,20.33,0,0,1,3.27-1.26,69.11,69.11,0,0,1,11.31-1.95c4.45-.48,8.47-.83,11.36-1.2S871.49,459.27,871.52,459.39Z"/><path class="cls-11" d="M878.93,467.43a9.52,9.52,0,0,1-2.76,1.41,43.48,43.48,0,0,1-7.19,2.09c-2.86.61-5.47,1-7.36,1.23a12.38,12.38,0,0,1-3.08.24c0-.25,4.61-1.07,10.28-2.22,2.83-.6,5.36-1.27,7.16-1.85A18,18,0,0,1,878.93,467.43Z"/><path class="cls-11" d="M877.81,481.39c.07.18-3.62,1.78-8.44,2.87s-8.84,1.25-8.86,1.05,3.93-.72,8.69-1.81S877.73,481.18,877.81,481.39Z"/><path class="cls-11" d="M875.4,493.31c.08.19-2.76,1.49-6.48,2.38s-6.83,1-6.85.84,3-.7,6.67-1.59S875.32,493.1,875.4,493.31Z"/><path class="cls-11" d="M854.85,486.18c0,.09-.4.36-1.2.43a4.54,4.54,0,0,1-4.75-3.37c-.19-.77-.08-1.27,0-1.27s.43,1.92,2.2,3.18S854.83,486,854.85,486.18Z"/><path class="cls-11" d="M854,498.63c0,.21-1.54.31-2.88-.9s-1.45-2.78-1.23-2.77.6,1.2,1.74,2.19S854.05,498.41,854,498.63Z"/><path class="cls-11" d="M849.46,473.34c.08.21-1,.55-2-.21s-1-1.91-.76-1.88.48.72,1.22,1.26S849.42,473.13,849.46,473.34Z"/><path class="cls-11" d="M806.55,469.88a1.17,1.17,0,0,1,.31-.17l.94-.44,3.65-1.61c3.2-1.39,7.86-3.4,13.74-5.81,2.95-1.2,6.19-2.51,9.75-3.83a37,37,0,0,1,5.65-1.76,59,59,0,0,1,6.27-.77c4.31-.34,8.87-.49,13.63-.56l3.62,0h1.83a3.82,3.82,0,0,1,2,.4,3.18,3.18,0,0,1,1.69,3.58,1.15,1.15,0,0,1-.46.52l-.44.27c-.3.16-.6.29-.9.42a15.24,15.24,0,0,1-1.87.65.38.38,0,0,1-.46-.27.37.37,0,0,1,.27-.45,39.73,39.73,0,0,1,4.91-1.1,18,18,0,0,1,5.2-.18,4.63,4.63,0,0,1,2.54,1.1,4.54,4.54,0,0,1,1.26,2.5,13.1,13.1,0,0,1-.33,5.43l-.2-.45a7.13,7.13,0,0,1,2.18,1.92,7.72,7.72,0,0,1,1.14,7,10.38,10.38,0,0,1-4.52,5.38l.15-.51a12.43,12.43,0,0,1,1.25,6.86,7.9,7.9,0,0,1-3.71,5.62l0,0L871.23,496l.19-.36c.11,1,.21,2.07.28,3.09,0,.52.07,1,.08,1.54,0,.26,0,.52,0,.79a2,2,0,0,1-.33.86A8.83,8.83,0,0,1,869.2,504c-.8.59-1.62,1.13-2.45,1.63a102.65,102.65,0,0,1-9.78,5.12.31.31,0,0,1-.13,0l-28.68-.44-7.94-.16-2.08-.07a3.25,3.25,0,0,1-.71-.06,4.82,4.82,0,0,1,.71,0l2.08,0h7.94l28.68.17-.13,0a105.2,105.2,0,0,0,9.68-5.14c.82-.5,1.62-1,2.4-1.6a8.89,8.89,0,0,0,2.05-1.95,1.36,1.36,0,0,0,.22-.53c0-.24,0-.48,0-.73,0-.5,0-1-.07-1.51q-.12-1.51-.3-3.06a.39.39,0,0,1,.19-.36l4.34-2.34,0,0a7.14,7.14,0,0,0,3.36-5.1,11.57,11.57,0,0,0-1.18-6.4.41.41,0,0,1,.16-.52,9.66,9.66,0,0,0,4.15-5,7,7,0,0,0-1-6.32,6.51,6.51,0,0,0-1.92-1.7.42.42,0,0,1-.2-.45,12.31,12.31,0,0,0,.33-5.07,3.85,3.85,0,0,0-1-2.09,4,4,0,0,0-2.13-.91,17.21,17.21,0,0,0-5,.18,40.08,40.08,0,0,0-4.82,1.06l-.19-.72a13,13,0,0,0,1.75-.61,9.06,9.06,0,0,0,.83-.38c.26-.1.52-.39.62-.37a3,3,0,0,0-.25-1.55,2.69,2.69,0,0,0-1.14-1.15,3.11,3.11,0,0,0-1.62-.33h-1.83l-3.61,0c-4.76.05-9.31.18-13.59.49a62,62,0,0,0-6.2.73,36.54,36.54,0,0,0-5.58,1.69c-3.55,1.29-6.8,2.57-9.76,3.74l-13.82,5.6c-1.58.64-2.82,1.14-3.7,1.51l-1,.37A1.62,1.62,0,0,1,806.55,469.88Z"/><path class="cls-11" d="M703.34,486.24c.13.21-4.09,2.25-7.67,6.6s-4.86,8.83-5.1,8.74a8.51,8.51,0,0,1,.77-2.93,23.19,23.19,0,0,1,9.26-11.12A8.26,8.26,0,0,1,703.34,486.24Z"/><path class="cls-9" d="M838.66,165.8a52.34,52.34,0,0,0-52.09-48.24h-2.71c-29.23,1.65-44.16,27.4-41.71,56.57l5.05,117a5.26,5.26,0,0,0,3,4.55l65.61,30.79-2-61.38s28.11-4.32,28.51-32.41C842.52,219.07,840.65,191.1,838.66,165.8Z"/><path class="cls-11" d="M814,265s-17.94,1-36.79-10.85c0,0,8.62,20.23,36.66,17.76Z"/><path class="cls-8" d="M828.7,183.25a4,4,0,0,1-3.88,4,3.84,3.84,0,0,1-4.13-3.63,4,4,0,0,1,3.87-4A3.85,3.85,0,0,1,828.7,183.25Z"/><path class="cls-8" d="M832.59,179.54c-.5.52-3.53-1.74-7.85-1.74s-7.49,2.16-8,1.63c-.23-.23.28-1.18,1.66-2.18a11,11,0,0,1,6.37-1.95,10.59,10.59,0,0,1,6.24,2C832.39,178.35,832.84,179.3,832.59,179.54Z"/><path class="cls-8" d="M786.26,184.56a4,4,0,0,1-3.88,4,3.84,3.84,0,0,1-4.13-3.63,4,4,0,0,1,3.87-4A3.85,3.85,0,0,1,786.26,184.56Z"/><path class="cls-8" d="M790.15,180.25c-.5.53-3.54-1.73-7.85-1.73s-7.49,2.16-7.95,1.63c-.23-.24.27-1.18,1.66-2.18a11,11,0,0,1,6.36-1.95,10.62,10.62,0,0,1,6.25,2C789.94,179.07,790.4,180,790.15,180.25Z"/><path class="cls-8" d="M805.75,212.3c0-.24,2.67-.7,7-1.25,1.1-.11,2.15-.32,2.33-1.08s-.19-2-.73-3.27c-1-2.67-2.11-5.46-3.24-8.4-4.5-12-7.76-21.79-7.28-22s4.53,9.37,9,21.33c1.09,3,2.12,5.77,3.11,8.46.41,1.25,1.13,2.67.56,4.32a2.76,2.76,0,0,1-1.82,1.61,7.09,7.09,0,0,1-1.87.26C808.48,212.54,805.77,212.55,805.75,212.3Z"/><path class="cls-8" d="M793,215.26c.7,0,.7,4.65,4.71,8s9,2.83,9,3.48c.06.29-1.12.91-3.23,1a11.64,11.64,0,0,1-7.53-2.64,10.17,10.17,0,0,1-3.65-6.69C792.2,216.4,792.72,215.24,793,215.26Z"/><path class="cls-8" d="M791.3,163.34c-.43,1.17-4.74.6-9.8,1.2s-9.17,2-9.84.92c-.3-.5.42-1.6,2.07-2.74a17.22,17.22,0,0,1,15-1.62C790.55,161.86,791.48,162.78,791.3,163.34Z"/><path class="cls-8" d="M831,167c-.76,1-3.73,0-7.31-.1s-6.61.64-7.3-.38c-.31-.5.17-1.48,1.5-2.41a10.6,10.6,0,0,1,11.77.39C831,165.55,831.37,166.56,831,167Z"/><path class="cls-9" d="M746.36,194.93c-.48-.21-19.3-5.75-18.72,13.46s19.74,14.67,19.76,14.12S746.36,194.93,746.36,194.93Z"/><path class="cls-11" d="M743,215.41c-.09-.06-.33.24-.89.52a3.34,3.34,0,0,1-2.49.12c-2.06-.68-3.86-3.85-4.06-7.31a11.05,11.05,0,0,1,.8-4.82,3.85,3.85,0,0,1,2.44-2.64,1.7,1.7,0,0,1,2,.85c.27.53.16.92.26,1s.41-.33.23-1.12a2.12,2.12,0,0,0-.79-1.18,2.55,2.55,0,0,0-1.87-.44c-1.48.15-2.77,1.55-3.4,3.09a11.34,11.34,0,0,0-1,5.38c.24,3.87,2.33,7.43,5.13,8.15a3.57,3.57,0,0,0,3-.6C743,215.87,743.07,215.44,743,215.41Z"/><path class="cls-8" d="M759,137.83l80.1,1.77c-2.49-5.53-6.94-9.95-11.77-13.62-10.41-7.89-23.21-12.82-36.27-13s-39.65,15.68-49.12,24.69c-7.57,7.21-7.52,13.45-7.52,13.45-1.21,10.38,4.61,22.19,6.92,32.38,1.19,5.26,3.49,21.17,3.49,21.17h0c4.42,0,6.06-3.53,5.39-7.89l-.83-17.12s15-10.66,7.9-30.19C756.1,147.87,753.66,140.74,759,137.83Z"/><path class="cls-11" d="M775.77,198.58a.51.51,0,0,1-.57-.42.49.49,0,0,1,.37-.6.52.52,0,0,1,.2,1Z"/><path class="cls-11" d="M784,196.73a.62.62,0,1,1,.35-.68A.54.54,0,0,1,784,196.73Z"/><path class="cls-11" d="M789.58,196.6c-.27,0-.52-.29-.57-.71s.11-.8.37-.84.52.29.57.72S789.84,196.57,789.58,196.6Z"/><path class="cls-11" d="M779.81,203.77c-.26,0-.47-.14-.47-.31s.21-.3.47-.3.48.13.48.3S780.08,203.77,779.81,203.77Z"/><path class="cls-11" d="M787.38,202a.55.55,0,1,1,.43-.58A.52.52,0,0,1,787.38,202Z"/><path class="cls-11" d="M826.76,197.41a.54.54,0,0,1-.21-1.06.54.54,0,0,1,.21,1.06Z"/><path class="cls-11" d="M832.38,196.9a.61.61,0,1,1,.42-.64A.54.54,0,0,1,832.38,196.9Z"/><path class="cls-11" d="M821.8,197.54a.46.46,0,0,1-.55-.32.44.44,0,0,1,.38-.5.42.42,0,1,1,.17.82Z"/><path class="cls-11" d="M826,203.17a.52.52,0,0,1-.65-.32.5.5,0,0,1,.21-.69.52.52,0,0,1,.66.31A.53.53,0,0,1,826,203.17Z"/><path class="cls-11" d="M830.76,202.22a.41.41,0,1,1,.56-.26A.44.44,0,0,1,830.76,202.22Z"/><path class="cls-8" d="M741.36,138.72c-2-7,0-14.83,4.5-20.59A23.52,23.52,0,0,1,765,109.28c3.75.15,7.46,1.21,11.19.8,6.92-.75,12.27-6.31,18.7-9,10-4.2,22.75-.38,28.8,8.64,2.44,3.64,4,8.14,7.77,10.43,3.22,2,7.29,1.81,10.92,2.91,7.33,2.2,12.35,10,12,17.64s-5.74,14.65-12.78,17.65-15.45,2.16-22.14-1.56c-6-3.37-11.46-9.1-18.37-8.9-7.16.21-13.42,7-20.44,5.56-3.69-.73-6.52-3.57-9.22-6.18s-5.8-5.28-9.55-5.5-5.7,4.93-4.36,8.44l-16.15-11.48"/><path class="cls-10" d="M837.49,129.43s0,.1-.13.28a6.58,6.58,0,0,1-.46.77,12.89,12.89,0,0,1-2.3,2.61,14.19,14.19,0,0,1-4.76,2.76,13.54,13.54,0,0,1-7.27.43,14.29,14.29,0,0,1-7.66-4.36c-2.19-2.4-3.49-5.61-5.53-8.44A11.38,11.38,0,0,0,805.5,120a11.51,11.51,0,0,0-5.31-1.17,12.14,12.14,0,0,0-5.45,1.47,10.21,10.21,0,0,0-4,4.14c-1,1.76-1.66,3.69-2.82,5.4a6.65,6.65,0,0,1-5.13,3.12,9.94,9.94,0,0,1-5.59-1.61,21.71,21.71,0,0,1-4.26-3.52c-2.47-2.5-4.91-5-7.94-5.66a10.08,10.08,0,0,0-8,1.89,13.85,13.85,0,0,0-4.42,5.47,22.38,22.38,0,0,0-1.65,5.15c-.3,1.47-.44,2.62-.53,3.4a9,9,0,0,1-.17,1.2s0-.11,0-.31,0-.5,0-.9a32.27,32.27,0,0,1,.39-3.44,22.09,22.09,0,0,1,1.56-5.28,14.06,14.06,0,0,1,4.49-5.73,10.64,10.64,0,0,1,8.51-2.08c3.28.71,5.83,3.32,8.3,5.78a19.92,19.92,0,0,0,4.13,3.39,9.19,9.19,0,0,0,5.16,1.49,5.82,5.82,0,0,0,4.54-2.8c1.09-1.59,1.78-3.51,2.78-5.34a11,11,0,0,1,4.32-4.43,12.84,12.84,0,0,1,5.81-1.55,11.13,11.13,0,0,1,9.79,5c2.09,3,3.35,6.13,5.42,8.44a14,14,0,0,0,7.31,4.25,13.18,13.18,0,0,0,7-.31,14.24,14.24,0,0,0,4.71-2.58A18.29,18.29,0,0,0,837.49,129.43Z"/><path class="cls-10" d="M852,129.72a4.5,4.5,0,0,1,.32,1.54,12.08,12.08,0,0,1-.4,4.29,14.92,14.92,0,0,1-3,5.65,17.43,17.43,0,0,1-6.34,4.61,25.87,25.87,0,0,1-14,1.58,36,36,0,0,1-4.2-.83,5.69,5.69,0,0,1-1.49-.5c0-.13,2.2.41,5.75.79a27.26,27.26,0,0,0,13.6-1.74,17.63,17.63,0,0,0,6.11-4.37,15,15,0,0,0,3-5.34A17,17,0,0,0,852,129.72Z"/><path class="cls-2" d="M715.31,439.18a16,16,0,0,0,3.37,8.32c1.72,2.24,5.21,4.42,8,4.26,0,0,7,.6,10.79-5.41,3.43-5.45,4.27-16.78,1.53-23.48-1.89-4.61-6.13-8.89-11.11-9-6.53-.15-10.63,4.57-12,9.35"/><path class="cls-8" d="M715.89,423.21A9.79,9.79,0,0,1,717.1,420a13.1,13.1,0,0,1,2.45-3.21,11.34,11.34,0,0,1,4.62-2.72,11.56,11.56,0,0,1,3.11-.49,9.37,9.37,0,0,1,3.4.44,13.47,13.47,0,0,1,6.07,4.35,17.44,17.44,0,0,1,3.56,7.43,32,32,0,0,1,.67,8.8c-.31,4.65-1.22,9.28-3.79,12.82a11.58,11.58,0,0,1-4.93,3.72,13.5,13.5,0,0,1-5.59.94h.05a8.4,8.4,0,0,1-4-1,13.3,13.3,0,0,1-3-2.1,15,15,0,0,1-3.28-4.89,14.7,14.7,0,0,1-1-3.6c0-.43-.08-.76-.09-1a1.12,1.12,0,0,1,0-.34,20.59,20.59,0,0,0,1.45,4.78,15.21,15.21,0,0,0,3.29,4.65,13.19,13.19,0,0,0,2.92,2,7.93,7.93,0,0,0,3.71.88h.05A11.91,11.91,0,0,0,736.6,447c2.4-3.31,3.32-7.86,3.6-12.41.32-5.88-.66-11.8-4-15.74a12.76,12.76,0,0,0-5.71-4.19,9.07,9.07,0,0,0-3.19-.46,11.2,11.2,0,0,0-7.45,2.94,13.26,13.26,0,0,0-2.48,3A25.88,25.88,0,0,0,715.89,423.21Z"/><path class="cls-2" d="M711.84,439.47a16,16,0,0,0,3.36,8.33c1.72,2.23,5.21,4.42,8,4.26,0,0,7,.59,10.8-5.42,3.42-5.45,4.26-16.78,1.52-23.48-1.89-4.61-6.13-8.89-11.1-9-6.54-.15-10.64,4.57-12,9.35"/><path class="cls-8" d="M712.41,423.5a10,10,0,0,1,1.21-3.2,13.13,13.13,0,0,1,2.45-3.22,11.3,11.3,0,0,1,4.63-2.71,11.43,11.43,0,0,1,3.1-.5,9.17,9.17,0,0,1,3.4.45,13.33,13.33,0,0,1,6.07,4.35,17.53,17.53,0,0,1,3.57,7.42,32.5,32.5,0,0,1,.66,8.81c-.3,4.65-1.22,9.28-3.79,12.81a11.39,11.39,0,0,1-4.93,3.72,13.45,13.45,0,0,1-5.58.94h0a8.4,8.4,0,0,1-4-1,13.21,13.21,0,0,1-3-2.1A15.09,15.09,0,0,1,713,444.4a14.32,14.32,0,0,1-1-3.61c-.06-.43-.09-.75-.1-1s0-.33,0-.34a20,20,0,0,0,1.44,4.78,15,15,0,0,0,3.3,4.65,12.57,12.57,0,0,0,2.91,2,7.94,7.94,0,0,0,3.72.88h0a11.86,11.86,0,0,0,9.87-4.47c2.4-3.32,3.32-7.87,3.61-12.42.32-5.87-.67-11.79-4-15.73a12.76,12.76,0,0,0-5.72-4.19,8.61,8.61,0,0,0-3.18-.46,11.33,11.33,0,0,0-3,.42,11.19,11.19,0,0,0-4.49,2.51,13.56,13.56,0,0,0-2.48,3.05A26.33,26.33,0,0,0,712.41,423.5Z"/><path class="cls-2" d="M718.14,421.83c-3.25-.65-6.6,1.58-8,4.59a13.21,13.21,0,0,0,0,9.7,12,12,0,0,0,2.48,4.36,6.48,6.48,0,0,0,4.43,2.16c2.47.07,4.69-1.61,6.13-3.63a13.8,13.8,0,0,0,2.09-11.39c-.67-2.57-2.57-5.21-5.23-5.28"/><path class="cls-8" d="M720.08,422.34s.2,0,.59,0a4.05,4.05,0,0,1,1.61.55,7.92,7.92,0,0,1,3.4,5.11,14.07,14.07,0,0,1-.92,9.09,11.77,11.77,0,0,1-3.33,4.37,6.42,6.42,0,0,1-5.73,1.37,8,8,0,0,1-4.58-3.74,16.79,16.79,0,0,1-1.91-5.13c-.71-3.42-.13-6.81,1.49-9a8,8,0,0,1,5.18-3.3,5.5,5.5,0,0,1,1.69,0c.38.08.58.13.57.16a11.37,11.37,0,0,0-2.21.14,7.88,7.88,0,0,0-4.79,3.31,11,11,0,0,0-1.23,8.52,16.3,16.3,0,0,0,1.86,4.88,7.31,7.31,0,0,0,4.14,3.39,5.7,5.7,0,0,0,5.06-1.23,11.18,11.18,0,0,0,3.14-4.07,13.68,13.68,0,0,0,1-8.67,7.75,7.75,0,0,0-3-5A6.15,6.15,0,0,0,720.08,422.34Z"/><path class="cls-8" d="M725.63,446.24c-.12,0-.28-.46-.79-1.06a5.55,5.55,0,0,0-2.53-1.63,14.68,14.68,0,0,0-3.12-.48c-.83-.06-1.36-.13-1.36-.24s.51-.23,1.35-.31a8.85,8.85,0,0,1,3.36.3,4.93,4.93,0,0,1,2.75,2C725.75,445.65,725.72,446.23,725.63,446.24Z"/><path class="cls-8" d="M726.8,419.81c.07.06-.23.53-.92,1.07a7.23,7.23,0,0,1-3.13,1.37,7.13,7.13,0,0,1-3.41-.19c-.84-.27-1.28-.6-1.24-.68s2,.58,4.51.11S726.65,419.63,726.8,419.81Z"/><path class="cls-8" d="M317.56,160c.18-6.47-5.8-11.47-11.83-13.84s-12.72-3.27-18.08-6.88c-4.76-3.2-7.95-8.19-12-12.27a39.84,39.84,0,0,0-67,18.28c-2.31,9.21-.73,20.11,6.53,26.23,8.43,7.11,20.93,5.53,31.73,3.32s23-4.39,32.05,1.95c5.44,3.83,8.55,10.05,11.88,15.81s7.5,11.64,13.78,13.8,14.83-1.57,15.07-8.22"/><path class="cls-8" d="M317.12,163.57c-.71,5.42,3.21,10.28,7.12,14.1s8.32,7.89,9,13.32c.8,6.34-3.82,12.58-2.48,18.83.85,4,3.94,7,5.81,10.62,2.62,5.05,2.76,11.16,1.15,16.62s-4.18,17.66-8,21.91c-10.49,11.73-27.21,21.86-42.56,25.39s-31.29,3.54-47,2.58c-12.86-.79-27.66-.2-38.38-17.9-5.56-9.17-8.31-21.36-11.26-31.67-2.54-8.87-4.74-18.37-2.1-27.22,1.54-5.15,4.64-9.73,6.16-14.89,1.9-6.44,1.21-13.33,2-20A45.9,45.9,0,0,1,261.89,139"/><path class="cls-9" d="M202.73,185.8c1.2-18.46,13.49-41.09,31.88-39.11L292,161.34a10.83,10.83,0,0,1,9.66,11l-6.45,138.54.39.09s-13.08,39.07-51.06,27.14c-7.53-2.37-11-10.61-12.46-19.08l-.39,0c0-1,0-1.94,0-2.9a90.66,90.66,0,0,1-.22-19h0c-.11-11.18-.1-15.77-.11-15.67s-23.58-4-28.4-34.76C200.56,231.42,201.39,206.32,202.73,185.8Z"/><path class="cls-8" d="M212,204.35a4,4,0,0,0,3.8,4,3.78,3.78,0,0,0,4.08-3.55,4,4,0,0,0-3.79-4A3.79,3.79,0,0,0,212,204.35Z"/><path class="cls-8" d="M208.14,198.87c.49.52,3.49-1.69,7.73-1.67s7.36,2.15,7.82,1.64c.23-.23-.27-1.16-1.62-2.16a10.86,10.86,0,0,0-6.26-1.94,10.47,10.47,0,0,0-6.16,2C208.35,197.71,207.9,198.64,208.14,198.87Z"/><path class="cls-8" d="M253.73,204.36a4,4,0,0,0,3.8,4,3.78,3.78,0,0,0,4.08-3.55,4,4,0,0,0-3.8-4A3.78,3.78,0,0,0,253.73,204.36Z"/><path class="cls-8" d="M249.9,199.76c.49.51,3.49-1.69,7.73-1.67s7.36,2.15,7.82,1.63c.23-.23-.26-1.16-1.63-2.15a10.83,10.83,0,0,0-6.25-1.95,10.37,10.37,0,0,0-6.16,2C250.11,198.6,249.66,199.53,249.9,199.76Z"/><path class="cls-8" d="M234.41,231.23c0-.24-2.62-.7-6.9-1.26-1.08-.12-2.11-.33-2.29-1.07s.2-2,.73-3.22c1-2.62,2.1-5.37,3.23-8.25,4.48-11.75,7.73-21.42,7.25-21.59s-4.49,9.2-9,20.95c-1.08,2.9-2.11,5.66-3.09,8.31-.42,1.23-1.13,2.63-.58,4.25a2.75,2.75,0,0,0,1.79,1.59,6.88,6.88,0,0,0,1.84.26C231.72,231.45,234.39,231.47,234.41,231.23Z"/><path class="cls-11" d="M231.36,281.49a78.27,78.27,0,0,0,41.26-10.9s-10.42,21.28-41.22,18.34Z"/><path class="cls-11" d="M236.18,241.47a7.67,7.67,0,0,1,6.87-2.83,7,7,0,0,1,4.82,2.6,4.44,4.44,0,0,1,.33,5.07c-1.15,1.61-3.55,2-5.57,1.39a16.17,16.17,0,0,1-5.43-3.25,4.83,4.83,0,0,1-1.21-1.26,1.44,1.44,0,0,1,0-1.58"/><path class="cls-8" d="M246.91,234.2c-.69,0-.71,4.56-4.67,7.83s-8.86,2.75-8.9,3.39c-.06.29,1.1.9,3.17,1a11.49,11.49,0,0,0,7.43-2.57,10,10,0,0,0,3.61-6.57C247.73,235.31,247.22,234.17,246.91,234.2Z"/><path class="cls-8" d="M248,192.32c.42,1.15,4.66.61,9.64,1.23s9,2,9.68.94c.3-.49-.4-1.58-2-2.7a16.19,16.19,0,0,0-7.17-2.53,16,16,0,0,0-7.55.87C248.75,190.86,247.82,191.77,248,192.32Z"/><path class="cls-8" d="M209.73,186.58c.75,1,3.67,0,7.19-.07s6.5.67,7.19-.34c.3-.49-.17-1.46-1.47-2.38a10.41,10.41,0,0,0-11.58.34C209.81,185.12,209.4,186.11,209.73,186.58Z"/><path class="cls-8" d="M313.53,262.62A27.32,27.32,0,0,1,281,232.39c1-7.56,5-15.25,2.41-22.41-3.47-9.46-16.73-12.37-20.25-21.81-2-5.48-.21-11.9-2.53-17.28-2.18-5.06-7.5-8-12.68-9.84s-10.73-3.17-15.07-6.55-7.06-9.75-4.26-14.49a291.68,291.68,0,0,1,67.27,16.34c5,1.88,10.3,4.13,13.27,8.6,3.14,4.72,3,10.83,2.73,16.5L308,264.37"/><path class="cls-10" d="M311.6,273.2s.19-.09.5-.31l1.37-1.05c1.19-.93,2.94-2.32,5.1-4.22a54.78,54.78,0,0,0,7.24-7.62,28.35,28.35,0,0,0,5.75-12.67c.92-5.05.25-11.42-4-16.2-2.07-2.34-4.74-4.09-7.17-6.11a16.75,16.75,0,0,1-5.59-7.63c-2.28-6.28-1.27-13.54-2.15-21A41.7,41.7,0,0,0,304,175.21a28.85,28.85,0,0,0-9.13-7.46c-3.5-1.84-7.28-2.6-10.77-3.64a25,25,0,0,1-9.46-4.66,37.16,37.16,0,0,1-6.86-7.56c-3.87-5.49-6.72-11.35-10.41-16.23a35.49,35.49,0,0,0-6.06-6.44,23.09,23.09,0,0,0-7.2-3.91c-5-1.7-10.21-1.14-13.67,1.36a12.61,12.61,0,0,0-4.85,9.22,9.15,9.15,0,0,0,1.85,6.34,6,6,0,0,0,1.25,1.2,2.14,2.14,0,0,0,.49.32s-.12-.16-.4-.43a6.24,6.24,0,0,1-1.12-1.26,9.1,9.1,0,0,1-1.55-6.14,12.09,12.09,0,0,1,4.77-8.63c3.25-2.26,8.21-2.75,12.93-1.08a22.31,22.31,0,0,1,6.84,3.83,34.48,34.48,0,0,1,5.82,6.29c3.57,4.8,6.37,10.64,10.29,16.28a38.38,38.38,0,0,0,7.07,7.85,26.43,26.43,0,0,0,9.89,4.92c3.57,1.06,7.25,1.82,10.53,3.57a27.4,27.4,0,0,1,8.7,7.12,40.59,40.59,0,0,1,8.46,20.51c.89,7.18-.14,14.56,2.28,21.24a18,18,0,0,0,6,8.12c2.52,2.06,5.14,3.76,7.1,5.94,3.95,4.4,4.69,10.4,3.86,15.3a27.93,27.93,0,0,1-5.42,12.37,56.62,56.62,0,0,1-7,7.68c-2.09,1.95-3.78,3.4-4.91,4.4A16.69,16.69,0,0,0,311.6,273.2Z"/><path class="cls-8" d="M317.22,277c6.33-6.11,17.14-.8,22.45,6.22s9.07,16.07,17.14,19.6,18.55.49,25.31,6.11c9.33,7.75,4.09,25.71,14.18,32.45,4,2.68,9.29,2.58,13.57,4.79,10.08,5.2,10,19.43,8.4,30.67-2.18,15.77-4.58,32.12-13.28,45.46S379.34,445,364.26,439.89c-14.48-4.94-21.91-20.57-27.8-34.7L312,346.57c-4.71-11.31-9.47-22.78-11-34.94s.53-25.27,8.26-34.78"/><path class="cls-12" d="M321.28,263.54c4.6-.55,8.11,5.08,6.9,9.56s-5.51,7.45-9.88,9a14.79,14.79,0,0,1-7.63.88,7.5,7.5,0,0,1-5.77-4.65c-.86-2.58-.2-4.33,2.11-5.77,3-1.89,4.8-3.38,7.18-4.7,3.66-2,3.44-2.28,7.09-4.3"/><polygon class="cls-6" points="215.48 313.08 233.34 299.55 300.63 295.25 303.34 304.27 281.45 440.86 298.72 603.82 204.84 603.82 215.48 313.08"/><g class="cls-7"><path d="M287.53,546c-2.14-2.29-5.66-5.45-8.8-5.51-22.48-.5-45.44-2.75-67.92-3.24l-1.8,66.6c5.38-9.48,10.47-19.35,11.88-30.16.62-4.72,1.41-10.36,5.72-12.38,2.44-1.14,5.3-.7,7.94-.17,8.12,1.6,16.18,3.7,24.45,4.21s16.9-.69,23.84-5.2a14.58,14.58,0,0,0,5.7-6.16C289.66,551.39,289.47,548.08,287.53,546Z"/></g><path class="cls-6" d="M230,315.83,228,296.3a6.18,6.18,0,0,1,5.6-6.82l61.95-5.6a2.92,2.92,0,0,1,3.18,2.83l.7,23.23-17.94,30.44L263,346.25H240.47l-13-13.85Z"/><path class="cls-8" d="M290.25,302.49a22.44,22.44,0,0,1-2.48-.25,43.58,43.58,0,0,0-6.75-.12,67.58,67.58,0,0,0-9.92,1.43c-3.7.78-7.72,1.87-12,2.9a78.67,78.67,0,0,1-12.2,2.18,31.58,31.58,0,0,1-10.11-.69,21.3,21.3,0,0,1-6.31-2.62,15.49,15.49,0,0,1-1.51-1.09c-.33-.27-.49-.43-.47-.45s.74.5,2.13,1.28a23.19,23.19,0,0,0,6.28,2.35,32.38,32.38,0,0,0,9.93.51,83.7,83.7,0,0,0,12.07-2.22c4.25-1,8.29-2.1,12-2.85a61,61,0,0,1,10-1.27,36.6,36.6,0,0,1,6.82.36c.79.13,1.41.25,1.82.36A2.48,2.48,0,0,1,290.25,302.49Z"/><g class="cls-7"><path d="M231.51,305.56c-1.65,4.56-1.7,10.21,1.66,13.7,2.75,2.85,7.15,3.57,11,2.79s7.37-2.81,10.77-4.84c8.53-5.07,17.19-10.33,26.88-12.48a3.56,3.56,0,0,0,1.74-.72,1.15,1.15,0,0,0,.05-1.68,1.56,1.56,0,0,0-.8-.23c-8.57-.86-17.07,1.56-25.47,3.45s-17.38,3.22-25.48.3"/></g><path class="cls-8" d="M243.35,288.85a5.6,5.6,0,0,0-2.12,2c-1,1.57-.93,4.24-.85,7.12.16,5.78,1.11,10.4.89,10.45a10.06,10.06,0,0,1-.84-3,45.91,45.91,0,0,1-.82-7.44,35,35,0,0,1,.08-4.14,7.31,7.31,0,0,1,1.07-3.29,4.3,4.3,0,0,1,1.75-1.55C243,288.81,243.34,288.81,243.35,288.85Z"/><path class="cls-8" d="M259.72,305.83c-.25,0,.31-4.28-.45-9.45s-2.43-9.12-2.2-9.21a8.09,8.09,0,0,1,1.27,2.52,30.74,30.74,0,0,1,1.7,6.58,29.69,29.69,0,0,1,.19,6.79A8.37,8.37,0,0,1,259.72,305.83Z"/><path class="cls-8" d="M279.66,285.53a6,6,0,0,1,1.18,2.3,16,16,0,0,1-.81,12.23,5.84,5.84,0,0,1-1.48,2.12c-.22-.1,2.05-3.43,2.33-8.2S279.42,285.61,279.66,285.53Z"/><path class="cls-3" d="M192.8,321.86s-21.12,14.15-26.67,39.7c-4.36,20.08-16.31,126.15-16.31,126.15L128.9,528.45,142.56,561h0a49.94,49.94,0,0,0,32.82-9.38l9.2-6.68,16.85-25Z"/><polygon class="cls-3" points="228.61 303.13 192.8 321.87 184.35 349.63 176.82 430.12 191 524.48 166.13 603.54 209.01 603.86 210.03 557.51 214.31 407.5 218.52 311.94 228.61 303.13"/><path class="cls-8" d="M211.27,428.18a7.09,7.09,0,0,1-.67-1.12l-1.78-3.28c-.74-1.44-1.46-3.3-2.39-5.41-.44-1.06-.8-2.24-1.24-3.47s-.91-2.54-1.27-3.95c-3.37-11.11-5.6-27.17-5.13-44.87.05-1.37.1-2.73.19-4.08l0-.24.22-.09,6.27-2.63-.1.65-6.25-5-.13-.11v-.15c-.29-6.67,1.33-12.68,2.85-17.9s3.3-9.76,4.81-13.47,2.83-6.6,3.78-8.58c.47-1,.84-1.74,1.1-2.24a3.75,3.75,0,0,1,.43-.75,4.72,4.72,0,0,1-.31.8l-1,2.3c-.87,2-2.12,4.92-3.57,8.65s-3.11,8.24-4.63,13.46-3,11.2-2.72,17.67l-.14-.26,6.27,5,.5.4-.59.25-6.26,2.64.23-.32c-.09,1.32-.14,2.68-.19,4-.46,17.63,1.67,33.61,4.89,44.7.34,1.41.8,2.7,1.2,3.94s.77,2.41,1.19,3.48c.88,2.11,1.56,4,2.25,5.43l1.65,3.34A9.14,9.14,0,0,1,211.27,428.18Z"/><path class="cls-8" d="M183.17,484.54a7.89,7.89,0,0,1-.34-1.16c-.21-.84-.49-2-.85-3.38s-.79-3.27-1.21-5.37-1-4.5-1.38-7.17-1-5.58-1.37-8.74-.81-6.52-1.19-10.08c-.64-7.12-1.07-15-1.08-23.24s.5-16.11,1.17-23.23c.39-3.56.73-6.94,1.22-10.09s.93-6.07,1.4-8.73,1-5.05,1.42-7.16.85-3.9,1.23-5.37.64-2.53.85-3.37a8.51,8.51,0,0,1,.35-1.16,6.32,6.32,0,0,1-.2,1.2c-.17.84-.41,2-.71,3.4s-.72,3.28-1.1,5.39-.9,4.5-1.3,7.16-.92,5.58-1.3,8.73-.78,6.52-1.15,10.06c-.63,7.11-1.07,14.94-1.11,23.17s.42,16.07,1,23.18c.36,3.54.66,6.92,1.11,10.06s.84,6.07,1.28,8.73.88,5.06,1.27,7.17.75,3.92,1.08,5.39.52,2.56.7,3.41A6.69,6.69,0,0,1,183.17,484.54Z"/><path class="cls-8" d="M192.86,557a16.68,16.68,0,0,1-1.74,3.6,58.89,58.89,0,0,1-12.2,14.89,15.85,15.85,0,0,1-3.19,2.41,29,29,0,0,1,2.82-2.81,87.64,87.64,0,0,0,6.49-7,88.48,88.48,0,0,0,5.61-7.74A26.34,26.34,0,0,1,192.86,557Z"/><path class="cls-3" d="M357.4,319.57a49.27,49.27,0,0,1,30.27,35.05c11.71,51.64,31.75,120.32,32.07,142.48.4,28.22-11.94,47.54-28.05,51.1C379,551,263.47,544.7,263.47,544.7l-5.4-43,93.51-13.76-12.8-71.55,12.67-99.09Z"/><path class="cls-3" d="M351.45,317.27,325.6,306.7l-27.26-16-.17,4.67h0a27.44,27.44,0,0,1,3.24,19L278.73,432.68l5.14,86.45,10.56,84.73h82l-37.65-88.61,13.29-119.39Z"/><path class="cls-8" d="M375.4,548.93a5,5,0,0,1-.56.07l-1.65.16c-1.45.16-3.61.15-6.39.22-5.57,0-13.64-.12-23.69-.45-20.1-.67-48.08-2-79.66-3.85l-.32,0,0-.31c-.64-5.13-1.32-10.54-2-16-1.16-9.29-2.3-18.34-3.38-27l-.05-.37.37-.05,71.4-10.38,21-3,5.63-.76,1.46-.18a2.69,2.69,0,0,1,.5,0,2.7,2.7,0,0,1-.49.11l-1.45.24-5.61.9-20.94,3.19-71.36,10.65.32-.42c1.09,8.66,2.23,17.72,3.4,27,.68,5.49,1.36,10.89,2,16l-.35-.33c31.57,1.85,59.54,3.29,79.63,4.1,10,.39,18.11.62,23.67.68,2.78,0,4.93,0,6.38-.08l1.65-.09A2.72,2.72,0,0,1,375.4,548.93Z"/><path class="cls-8" d="M338,409.13a4.51,4.51,0,0,1,.2.8c.12.61.27,1.36.45,2.29.38,2.1.91,5,1.55,8.45l4.86,27.93c1.81,10.87,3.45,20.71,4.66,28,.55,3.5,1,6.38,1.33,8.49.13.94.24,1.7.32,2.32a2.76,2.76,0,0,1,.06.81,3.45,3.45,0,0,1-.21-.79c-.13-.61-.28-1.36-.47-2.29l-1.57-8.45c-1.29-7.13-3-17-4.88-27.92s-3.5-20.8-4.64-28c-.54-3.5-1-6.38-1.31-8.49-.12-.94-.22-1.71-.31-2.32A3.18,3.18,0,0,1,338,409.13Z"/><path class="cls-8" d="M310.23,299.06a1,1,0,0,1,.1.29c.07.24.15.52.24.87.19.76.52,1.88.83,3.36a104.07,104.07,0,0,1,2,12.74,144.23,144.23,0,0,1,.49,19.42c-.25,7.39-1,15.56-2.14,24.21l0,.28-.27,0L303,361.85l.29-.52c.48,1.29,1,2.69,1.37,4.13,2.75,10,1.54,20.19-1,28.69a90.45,90.45,0,0,1-9.94,21.39c-3.52,5.72-6.71,10.13-8.91,13.17l-2.56,3.48-.68.89c-.16.2-.25.3-.26.29a1.35,1.35,0,0,1,.19-.34c.17-.24.37-.55.62-.93.6-.87,1.41-2.06,2.45-3.56,2.11-3.1,5.23-7.55,8.69-13.28A92.17,92.17,0,0,0,303,394c2.45-8.42,3.6-18.44.9-28.28-.37-1.42-.87-2.79-1.33-4.06l-.17-.44.45-.08,8.46-1.56-.31.33c1.13-8.64,1.94-16.78,2.24-24.14a151.43,151.43,0,0,0-.32-19.36,120.62,120.62,0,0,0-1.74-12.72c-.27-1.49-.56-2.62-.7-3.39l-.18-.88A1.18,1.18,0,0,1,310.23,299.06Z"/><path class="cls-12" d="M310.23,420.44V401.56s.24-4.66-3.68-3.68-3.19,8.34-3.19,8.34-.73,28.68,1,28.44,2.38-2.45,2.38-2.45v-11Z"/><path class="cls-8" d="M326.54,421.61c0,.22-4.53.39-10.11.39s-10.11-.17-10.11-.39,4.52-.38,10.11-.38S326.54,421.4,326.54,421.61Z"/><path class="cls-8" d="M363.9,330.77a16,16,0,0,1-2.12.78,48.85,48.85,0,0,0-5.61,2.43A43.55,43.55,0,0,0,341,346.91a30.83,30.83,0,0,0-3,4.86,30.11,30.11,0,0,0-1.8,5,50.1,50.1,0,0,0-1.5,8.92c-.22,2.57-.27,4.67-.28,6.12a16.5,16.5,0,0,1-.06,2.25,9.63,9.63,0,0,1-.24-2.25,55.3,55.3,0,0,1,0-6.16,47.44,47.44,0,0,1,1.36-9.07,30.94,30.94,0,0,1,1.8-5.14,32.49,32.49,0,0,1,3-5,42.09,42.09,0,0,1,15.56-13,39.58,39.58,0,0,1,5.76-2.23A11.24,11.24,0,0,1,363.9,330.77Z"/><polygon class="cls-8" points="31.04 487.71 166.13 537.75 280.01 555.16 144.61 489.15 31.04 487.71"/><path class="cls-9" d="M88.85,541.67a57.41,57.41,0,0,0-7.19-20.47,15.24,15.24,0,0,1-1.84-3.84,4.42,4.42,0,0,1,.76-4c1.73-1.89,4.9-1.05,7,.38,4.42,3,7.37,7.72,9.1,12.74s2.36,10.34,3,15.61"/><path class="cls-9" d="M141.51,528.8h-6.72a13.15,13.15,0,0,0-5.89-3.38c-1.55-.44-3.07.38-4.45,1.73,3-4.95,6.24-10.39,6.87-11.89,1.2-2.9-1.45-5.07-5.81-5.07s-23.45,27.08-23.45,27.08,11.87-21.79,13-25.11c2.88-8.32-6.22-8.94-9.52-4.93-4.1,5-20.67,30-20.67,30s-3.14,5.07-1,9.91,8.46,2.9,8.46,2.9a8.1,8.1,0,0,0,4.43,6.72c4.85,2.7,11.24-.43,11.24-.43l24.71,5.56,8.94-.9a27.42,27.42,0,0,0,24.42-23.28h0Z"/><path class="cls-11" d="M124.85,526.77c.28.17-3,5.35-7.28,11.55-2.13,3.1-4.11,5.88-5.57,7.87a21,21,0,0,1-2.5,3.13,20.28,20.28,0,0,1,2-3.44c1.35-2.07,3.25-4.9,5.39-8S121,532,122.47,530c.63-.87,1.19-1.66,1.71-2.37A5.56,5.56,0,0,1,124.85,526.77Z"/><path class="cls-11" d="M123.37,554.34a22.93,22.93,0,0,1,2.2-4.05c1.46-2.43,3.54-5.75,5.82-9.42,1.14-1.84,2.24-3.59,3.13-5.21a6,6,0,0,0,.55-4.58,11.48,11.48,0,0,0-2.11-3.94s.41.21,1,.8a8,8,0,0,1,1.68,3,6.49,6.49,0,0,1-.44,5.06c-.89,1.68-2,3.44-3.11,5.29-2.29,3.68-4.44,7-6,9.31A33.66,33.66,0,0,1,123.37,554.34Z"/><path class="cls-11" d="M136.37,556.8a14.08,14.08,0,0,1,1.31-3.85l1.77-4a31.73,31.73,0,0,0,1.81-5,5.83,5.83,0,0,0-.78-4.83,4.71,4.71,0,0,0-1.76-1.26,5.11,5.11,0,0,0-1.85-.51,7.53,7.53,0,0,0-2.66.93c-.62.31-1,.46-1,.41s.28-.28.86-.67c.3-.19.66-.43,1.11-.67a4.2,4.2,0,0,1,1.7-.55,5.47,5.47,0,0,1,2.11.48,5.15,5.15,0,0,1,2.06,1.4,6.38,6.38,0,0,1,1,5.44,29.46,29.46,0,0,1-1.92,5.11c-.7,1.51-1.37,2.84-1.92,4C137.06,555.41,136.47,556.84,136.37,556.8Z"/><path class="cls-11" d="M140.92,533.42s.4,0,1.05.31a12.28,12.28,0,0,1,2.58,1.52,14.09,14.09,0,0,1,4,17.92,12.25,12.25,0,0,1-1.69,2.47c-.48.52-.78.76-.82.73s1-1.21,2-3.44a14.33,14.33,0,0,0-3.85-17.25C142.33,534.1,140.86,533.55,140.92,533.42Z"/><path class="cls-11" d="M97.41,519.21c.17.12-2.33,4.13-5.6,8.95s-6,8.65-6.23,8.53,2.33-4.13,5.59-9S97.23,519.09,97.41,519.21Z"/><path class="cls-9" d="M257.67,503.29l-15.45-3.5-14.83-14a10.49,10.49,0,0,0-6.61-2.85l-27-1.55a10.51,10.51,0,0,0-7.4,2.47l-19.3,16.3,84.18,41,11.55,1Z"/><path class="cls-11" d="M211.91,496.08c0,.12-2-.24-5.2-.65s-7.78-.79-12.22,1.27a32.29,32.29,0,0,0-5.83,3.64c-1.7,1.28-3.23,2.47-4.59,3.38a24.32,24.32,0,0,1-3.33,1.94,5.09,5.09,0,0,1-1.34.49c-.05-.12,1.78-.94,4.36-2.88,1.29-.95,2.78-2.18,4.47-3.5a30.57,30.57,0,0,1,5.94-3.78,17.51,17.51,0,0,1,6.89-1.54,30.27,30.27,0,0,1,5.73.44c1.61.26,2.89.56,3.77.77A5.07,5.07,0,0,1,211.91,496.08Z"/><path class="cls-11" d="M217.45,511.11c0,.12-1.11-.36-2.91-.55a15.67,15.67,0,0,0-6.95,1,36.54,36.54,0,0,0-6.35,3.26,13.06,13.06,0,0,1-2.63,1.47,11.07,11.07,0,0,1,2.32-1.92,27,27,0,0,1,6.4-3.53,14.17,14.17,0,0,1,7.28-.79A5.72,5.72,0,0,1,217.45,511.11Z"/><path class="cls-11" d="M252.19,513.6c-.19.12-2.37-3.1-5.24-6.94s-5.32-6.85-5.16-7,2.9,2.66,5.78,6.54S252.36,513.5,252.19,513.6Z"/><path class="cls-12" d="M209.68,483l34.22-31.88a3.26,3.26,0,0,0-.24-5h0a3.26,3.26,0,0,0-4.17.16l-40.12,36"/><g class="cls-7"><path d="M209.68,483l34.22-31.88a3.26,3.26,0,0,0-.24-5h0a3.26,3.26,0,0,0-4.17.16l-40.12,36"/></g><path class="cls-13" d="M489.25,176c-.53-.21-21.25-5.65-20,15.3s22,15.37,22,14.77S489.25,176,489.25,176Z"/><path class="cls-14" d="M484.41,198.47c-.1-.07-.35.27-1,.59a3.65,3.65,0,0,1-2.73.22c-2.26-.68-4.33-4.08-4.66-7.85a12,12,0,0,1,.71-5.29c.55-1.57,1.47-2.7,2.58-3a1.84,1.84,0,0,1,2.21.87c.32.57.21,1,.32,1s.43-.37.21-1.23a2.34,2.34,0,0,0-.9-1.26,2.76,2.76,0,0,0-2.05-.42c-1.61.21-3,1.79-3.62,3.48a12.44,12.44,0,0,0-.92,5.92c.39,4.21,2.79,8,5.87,8.73a3.94,3.94,0,0,0,3.3-.76C484.4,199,484.48,198.5,484.41,198.47Z"/><path class="cls-8" d="M541.57,101.1c10.64,0,21.48,0,34.81,7,8.4,4.39,13.65,11.34,18,19.75a45.52,45.52,0,0,1,5,22.11c-.39,7.25-.41,12.31-3.31,19"/><path class="cls-13" d="M537.31,102.74a56.49,56.49,0,0,1,60.37,53.38c1.37,26.25,2.58,54.64,2.29,68.93-.63,30.68-31.36,35.21-31.36,35.21s.68,9.1,1.44,20.38a40.42,40.42,0,0,1-38.79,43.11h0a40.41,40.41,0,0,1-41.92-38.89L484.78,161.2a56.51,56.51,0,0,1,52.53-58.46Z"/><path class="cls-14" d="M568.61,260.26s-18.85,1-39.36-12.13c0,0,9.28,22.32,39.92,19.8Z"/><path class="cls-8" d="M585.93,173.19a4.39,4.39,0,0,1-4.27,4.39,4.18,4.18,0,0,1-4.48-4,4.39,4.39,0,0,1,4.26-4.39A4.21,4.21,0,0,1,585.93,173.19Z"/><path class="cls-8" d="M590.18,167c-.55.57-3.85-1.92-8.57-1.94s-8.19,2.3-8.7,1.72c-.24-.26.32-1.28,1.83-2.37a12.09,12.09,0,0,1,7-2.09,11.52,11.52,0,0,1,6.81,2.26C590,165.7,590.45,166.73,590.18,167Z"/><path class="cls-8" d="M539.68,173.19a4.37,4.37,0,0,1-4.26,4.39,4.18,4.18,0,0,1-4.48-4,4.38,4.38,0,0,1,4.25-4.39A4.19,4.19,0,0,1,539.68,173.19Z"/><path class="cls-8" d="M543.82,167.5c-.55.56-3.85-1.92-8.57-1.94s-8.19,2.3-8.69,1.72c-.25-.26.3-1.28,1.83-2.37a12.06,12.06,0,0,1,7-2.09,11.52,11.52,0,0,1,6.81,2.26C543.6,166.21,544.09,167.24,543.82,167.5Z"/><path class="cls-8" d="M560.65,202.6c0-.26,2.92-.75,7.67-1.32,1.21-.11,2.35-.34,2.56-1.16s-.2-2.17-.78-3.58l-3.49-9.19c-4.84-13.1-8.33-23.86-7.8-24s4.88,10.27,9.72,23.36q1.76,4.84,3.34,9.25c.44,1.37,1.22,2.93.59,4.73a3,3,0,0,1-2,1.75,8.55,8.55,0,0,1-2,.27C563.63,202.87,560.67,202.87,560.65,202.6Z"/><path class="cls-8" d="M546.75,205.75c.77,0,.74,5.08,5.09,8.75s9.8,3.15,9.84,3.87c.07.32-1.23,1-3.53,1a12.85,12.85,0,0,1-8.22-2.94,11.07,11.07,0,0,1-3.93-7.33C545.82,207,546.4,205.72,546.75,205.75Z"/><path class="cls-8" d="M545.18,149c-.47,1.28-5.18.63-10.71,1.25s-10,2.1-10.75.94c-.32-.55.46-1.75,2.28-3a18.76,18.76,0,0,1,16.35-1.67C544.37,147.41,545.39,148.42,545.18,149Z"/><path class="cls-8" d="M589.51,150.2c-.83,1.07-4.07-.07-8-.15-3.9-.23-7.22.66-8-.47-.33-.55.2-1.61,1.65-2.62a11.58,11.58,0,0,1,12.86.5C589.44,148.58,589.88,149.68,589.51,150.2Z"/><path class="cls-8" d="M485.14,170.77s1.33,7.1,1.69,10.3c.13,1.17,0,14.17,3.14,14.82,2.71.56,8.11-1.92,10.51-7.29s7-18.28,6.49-24.15c-.68-8-1.05-16.13.55-24s5.36-15.55,11.69-20.5,15.44-6.68,22.62-3.08c4.43,2.23,7.75,6.16,11.87,8.91,3.72,2.46,8.25,3.94,12.66,3.29s8.58-3.73,9.78-8c1.31-4.68-1.1-9.81-4.85-12.91s-8.59-4.53-13.36-5.48c-13.23-2.63-27.26-2.1-39.83,2.78S494.36,119.72,489,132.09c-6.21,14.31-5.49,23.08-3.85,38.68"/><path class="cls-8" d="M555.28,173.39a37.17,37.17,0,0,0-.8-5,20.61,20.61,0,0,0-27-14.2,20.66,20.66,0,0,0-9.51,7.15,20.42,20.42,0,0,0,0,24.2,20.66,20.66,0,0,0,9.51,7.15,20.66,20.66,0,0,0,27-14.2,37.17,37.17,0,0,0,.8-5.05,1.3,1.3,0,0,1,0,.34c0,.27,0,.6,0,1a9.26,9.26,0,0,1-.13,1.62,14.05,14.05,0,0,1-.39,2.18,21,21,0,0,1-16.43,15.67,21.36,21.36,0,0,1-11.14-.88,21.21,21.21,0,0,1-9.87-7.37,21.09,21.09,0,0,1,0-25.1,21.21,21.21,0,0,1,9.87-7.37,21.36,21.36,0,0,1,11.14-.88,21,21,0,0,1,16.43,15.67,14.05,14.05,0,0,1,.39,2.18,9.33,9.33,0,0,1,.13,1.62c0,.39,0,.72,0,1A1.23,1.23,0,0,1,555.28,173.39Z"/><path class="cls-8" d="M609.29,173.39a37.17,37.17,0,0,0-.8-5,20.61,20.61,0,0,0-27-14.2,20.66,20.66,0,0,0-9.51,7.15,20.38,20.38,0,0,0,0,24.2,20.66,20.66,0,0,0,9.51,7.15,20.66,20.66,0,0,0,27-14.2,37.17,37.17,0,0,0,.8-5.05,1.3,1.3,0,0,1,0,.34c0,.27,0,.6,0,1a9.26,9.26,0,0,1-.13,1.62,14.05,14.05,0,0,1-.39,2.18,21,21,0,0,1-16.43,15.67,21.36,21.36,0,0,1-11.14-.88,21.21,21.21,0,0,1-9.87-7.37,21.09,21.09,0,0,1,0-25.1,21.21,21.21,0,0,1,9.87-7.37,21.36,21.36,0,0,1,11.14-.88,21,21,0,0,1,16.43,15.67,14.05,14.05,0,0,1,.39,2.18,9.33,9.33,0,0,1,.13,1.62c0,.39,0,.72,0,1A1.23,1.23,0,0,1,609.29,173.39Z"/><path class="cls-8" d="M568.08,171.17a11.09,11.09,0,0,1-1.92-.67,12.47,12.47,0,0,0-9.34.62c-1.11.54-1.74,1-1.82.92s.46-.7,1.56-1.4a10.73,10.73,0,0,1,9.79-.65C567.54,170.54,568.13,171.1,568.08,171.17Z"/><path class="cls-8" d="M576.45,119.4c.3-1.59-.22-2.48.67-3.14s3,1.21,3.67,2c.22.25.94-.72,1.22-.91a5.27,5.27,0,0,0,.54-2c-.13-1.11-1.87-1.41-2.69-2.17a8.42,8.42,0,0,0-2.9-1.64,2.77,2.77,0,0,0-2.77.16,2.71,2.71,0,0,0-.61,2.08,5.65,5.65,0,0,0,.42,2.16,3,3,0,0,0,1.47,1.59"/><path class="cls-3" d="M484,154.46s15,5.52,22.87,8.84l-.44-7.7L484.54,147S484,152.66,484,154.46Z"/><path class="cls-3" d="M485.4,142.51c.09-.2,4.86,1.63,10.65,4.08s10.44,4.6,10.35,4.8-4.85-1.63-10.65-4.08S485.32,142.71,485.4,142.51Z"/><path class="cls-15" d="M489.94,304.59l-1.16-36.41S496,301.5,533.9,301.06c36.21-.41,35.55-29.35,35.55-29.35l1.29,14.67v59.29l-23.62,96.71L517,446.21,483.63,314Z"/><path class="cls-8" d="M566.08,292.93a4,4,0,0,1-.44.78,20.2,20.2,0,0,1-1.44,2.11,31,31,0,0,1-6.74,6.53,39,39,0,0,1-12.6,5.91,44.32,44.32,0,0,1-17,1.18,55.56,55.56,0,0,1-16.32-4.91,71.32,71.32,0,0,1-11.93-7.19,84.44,84.44,0,0,1-7.22-6c-.82-.74-1.41-1.37-1.83-1.77a3.47,3.47,0,0,1-.59-.67,4.92,4.92,0,0,1,.7.55l1.92,1.66c1.67,1.44,4.14,3.48,7.35,5.77a73.26,73.26,0,0,0,11.9,7A55.64,55.64,0,0,0,528,308.67a44.57,44.57,0,0,0,16.72-1.09,39.47,39.47,0,0,0,12.46-5.68,33.08,33.08,0,0,0,6.83-6.27C565.35,293.92,566,292.89,566.08,292.93Z"/><path class="cls-3" d="M539.78,603.75l-.54-171.85L490.43,306.47l-1.64-37.75-29.73,22.49s-43.3,149-44,143.85,0,168.69,0,168.69Z"/><path class="cls-8" d="M538.61,603.28c-.21,0-.39-38.73-.39-86.49s.18-86.49.39-86.49S539,469,539,516.79,538.82,603.28,538.61,603.28Z"/><polygon class="cls-2" points="459.49 315.76 465.52 320.33 461.28 348.13 532.52 422.75 467.82 337.79 473.33 315.76 459.49 315.76"/><path class="cls-3" d="M542.45,515.72,433.13,483.66l-3.62-83,30-109.41S388,326.87,383.15,349.56s-16.59,77.86-17.84,117.73c-1.12,35.65-1.28,59.48,6.86,70.86,23.32,32.59,177,38.41,238.34,0"/><path class="cls-8" d="M533.9,424.55a2.37,2.37,0,0,1-.36-.4l-1-1.22-3.71-4.76L515.3,400.59l-44.44-58.18c-1.13-1.47-2.24-2.94-3.35-4.39l-.11-.15,0-.18c1.91-7.61,3.77-15,5.53-22l.36.46-13.84,0h-.35v-.35c0-9,0-17.24.06-24.55v-.15l.11-.08,21.49-16.33,5.9-4.43,1.55-1.13a3.53,3.53,0,0,1,.54-.37,3.74,3.74,0,0,1-.49.43l-1.5,1.21-5.8,4.55-21.33,16.54.12-.24c0,7.31,0,15.55,0,24.55l-.35-.35,13.84,0h.48l-.12.46c-1.75,7-3.6,14.42-5.5,22l-.06-.33,3.34,4.39,44.27,58.32L529.09,418l3.59,4.84.92,1.27A3.29,3.29,0,0,1,533.9,424.55Z"/><path class="cls-3" d="M582.64,284.74c-8.73-15.25-13.25-13.66-13.25-13.66l.46,5.44v11.42l-4.13,49L539.24,443.43l.54,160.32H639.91L652.37,408l-1.13-84.31Z"/><path class="cls-3" d="M651.24,323.73s25.91,19.13,28.16,49.91c1.82,25,6,93.46,6.76,108.36,1.18,23.21-16.89,77.55-63.94,62.16-28.21-9.23-132.46-44.67-132.46-44.67l6.93-44.27,123.74,7.37,2.45-103.2Z"/><path class="cls-13" d="M495.28,460.32s-35-3.79-43.13-1.83c-7.79,1.88-18.89,11.42-18.89,11.42l.16,13.83,56.34,15.75Z"/><path class="cls-8" d="M539.24,427.42a1.87,1.87,0,0,1,.15-.48c.14-.34.31-.8.53-1.37.5-1.24,1.2-3,2.09-5.23l7.84-19.19,11.71-28.42c1.11-2.67,2.21-5.45,3.59-8.16s2.88-5.43,4.49-8.14a175.93,175.93,0,0,1,11.12-16.05c2-2.61,4-5.15,6.16-7.58l-.07.4q-2.24-5.67-4.36-11.1l-.15-.37.37-.12L601,315.4l-.19.51c-8.47-14.13-15.63-26.08-20.69-34.55-2.51-4.19-4.65-7.54-6.92-8.91a9,9,0,0,0-2.76-1.12,8.45,8.45,0,0,1-1-.25,7.29,7.29,0,0,1,1,.14,8.53,8.53,0,0,1,2.86,1,12.62,12.62,0,0,1,3.51,3.4,64.28,64.28,0,0,1,3.64,5.48l20.94,34.42.22.36-.41.15L583,322.32l.23-.49,4.37,11.08.09.22-.16.18c-2.08,2.41-4.11,4.95-6.12,7.54a181.52,181.52,0,0,0-11.09,16c-1.6,2.7-3.15,5.36-4.47,8.08s-2.46,5.43-3.59,8.1l-11.87,28.36c-3.39,8-6.14,14.54-8.06,19.1l-2.23,5.17c-.25.56-.44,1-.6,1.34A2.69,2.69,0,0,1,539.24,427.42Z"/><path class="cls-8" d="M665.46,535.55a5.21,5.21,0,0,1-.44.45l-1.33,1.3a39.82,39.82,0,0,1-5.69,4.31A38.37,38.37,0,0,1,647.59,546a42.07,42.07,0,0,1-14.91.94,47.16,47.16,0,0,1-8.53-1.81c-2.91-.92-5.82-2.06-8.89-3.14-6.12-2.22-12.67-4.53-19.57-7-13.81-4.83-29-10-45.08-15.27-32.08-10.54-61.34-19.42-82.54-25.76l-25.14-7.43-6.83-2-1.77-.55a2.88,2.88,0,0,1-.59-.21l.61.14,1.8.47,6.87,1.89c6,1.66,14.57,4.11,25.2,7.2,21.25,6.2,50.54,15,82.63,25.54,16,5.27,31.28,10.47,45.07,15.34,6.9,2.44,13.45,4.77,19.56,7,3.06,1.09,6,2.25,8.85,3.18a46.64,46.64,0,0,0,8.42,1.83,42.3,42.3,0,0,0,14.74-.82,38.84,38.84,0,0,0,10.36-4.21,41.66,41.66,0,0,0,5.74-4.17L665,536A2.9,2.9,0,0,1,665.46,535.55Z"/><path class="cls-8" d="M433.42,484c0,.16-2-.26-5.11-.14a23.69,23.69,0,0,0-5.41.9,25.4,25.4,0,0,0-6.09,2.77,28.43,28.43,0,0,0-8.47,8.71c-1.66,2.67-2.37,4.51-2.51,4.45a4.89,4.89,0,0,1,.41-1.32,25,25,0,0,1,1.63-3.41,26.63,26.63,0,0,1,8.53-9.08,24.05,24.05,0,0,1,6.31-2.81,21.84,21.84,0,0,1,5.59-.75,18.55,18.55,0,0,1,3.77.33A5.14,5.14,0,0,1,433.42,484Z"/><path class="cls-8" d="M399,473.14s0-.14.14-.39a3.69,3.69,0,0,1,.68-1,7,7,0,0,1,3.89-1.93,19.45,19.45,0,0,1,6.42,0,36.71,36.71,0,0,1,7.61,1.85,33.35,33.35,0,0,1,12.08,7.39,26.29,26.29,0,0,1,2.81,3.28,6.55,6.55,0,0,1,.81,1.35c-.13.1-1.35-1.8-4-4.23a35.87,35.87,0,0,0-12-7.07,39.63,39.63,0,0,0-7.45-1.87,20.8,20.8,0,0,0-6.23-.18A7.17,7.17,0,0,0,400,472C399.29,472.66,399,473.18,399,473.14Z"/><path class="cls-8" d="M439.79,377.77a14.11,14.11,0,0,1-.5-2.25c-.22-.71-.54-1.56-.88-2.55s-.94-2-1.62-3.17a44,44,0,0,0-5.57-7.41,59,59,0,0,0-8.54-7.51A51.43,51.43,0,0,0,404,346.3a39.48,39.48,0,0,0-6.21-.79,13.66,13.66,0,0,1-2.31-.19,13.48,13.48,0,0,1,2.31-.11,33,33,0,0,1,6.32.55,49.14,49.14,0,0,1,19,8.49,57.23,57.23,0,0,1,8.62,7.66,42.31,42.31,0,0,1,5.52,7.62c.66,1.17,1.1,2.32,1.55,3.28s.59,1.91.77,2.64A12.52,12.52,0,0,1,439.79,377.77Z"/><path class="cls-8" d="M647.36,504.75a2,2,0,0,1,0-.53l0-1.55c0-1.37-.1-3.38-.3-6a82.79,82.79,0,0,0-4.39-21.41,30.39,30.39,0,0,0-3-6.54,12.88,12.88,0,0,0-5.79-4.91c-5-2.14-11-1.86-17.06-2.2L576.88,460c-32.94-1.43-62.25-2.67-80.66-3.65l.25-.2c-1.11,6.76-2,12.13-2.61,15.85l-.72,4.2c-.09.45-.15.8-.2,1.08a1.8,1.8,0,0,1-.09.36s0-.13,0-.37.08-.64.14-1.09c.14-1,.34-2.41.6-4.22L496,456l0-.2h.22l80.67,3.36,39.87,1.74c3.06.15,6,.22,9,.46a26,26,0,0,1,8.31,1.86,13.43,13.43,0,0,1,6,5.18,30.33,30.33,0,0,1,3,6.68,80.23,80.23,0,0,1,4.18,21.57c.16,2.59.16,4.61.15,6,0,.66,0,1.17,0,1.56A2.72,2.72,0,0,1,647.36,504.75Z"/><path class="cls-8" d="M623.76,407.88c.22,0,.39,12,.39,26.77s-.17,26.76-.39,26.76-.38-12-.38-26.76S623.55,407.88,623.76,407.88Z"/><path class="cls-8" d="M384,346.88s-.09.34-.3,1-.58,1.6-.9,2.9c-.72,2.57-1.63,6.41-2.66,11.42-2.07,10-4.61,24.65-7.47,43-1.42,9.17-2.93,19.26-4.42,30.16-.75,5.45-1.22,11.13-1.62,17s-.7,11.95-.92,18.19c-.46,12.49-.72,25.68-.36,39.42.1,3.43.23,6.91.52,10.39.08,1.76.37,3.48.59,5.22a41.28,41.28,0,0,0,1.26,5.13,29.43,29.43,0,0,0,4.92,9.41,21.29,21.29,0,0,0,8.45,6.5l0,0h0a129.36,129.36,0,0,0,22,8.41c7.68,2.3,15.61,4.16,23.67,5.81A326.24,326.24,0,0,0,480,567.32a250.44,250.44,0,0,0,25.39-.66c8.27-.58,16.33-1.44,24.13-2.6A253.46,253.46,0,0,0,572.85,554a221.53,221.53,0,0,0,35-15l0,.48-48-17-12.93-4.62-3.35-1.21c-.75-.28-1.13-.44-1.13-.44s.4.11,1.16.36l3.37,1.15,13,4.49L608.09,539l.56.2-.53.28a221.64,221.64,0,0,1-35.07,15.16,253.35,253.35,0,0,1-43.41,10.17q-11.73,1.75-24.18,2.63a245.82,245.82,0,0,1-25.46.68,325.28,325.28,0,0,1-53.3-6.47c-8.08-1.66-16-3.52-23.73-5.83a129.1,129.1,0,0,1-22.17-8.48l.06,0a21.78,21.78,0,0,1-8.79-6.75,30,30,0,0,1-5.05-9.65,43.34,43.34,0,0,1-1.28-5.23c-.22-1.77-.51-3.53-.59-5.29-.29-3.51-.41-7-.51-10.43-.35-13.77-.06-27,.41-39.46q.36-9.37,1-18.21c.4-5.88.89-11.58,1.66-17,1.52-10.9,3.06-21,4.51-30.16,2.92-18.32,5.55-33,7.7-43,1.07-5,2-8.84,2.79-11.4.34-1.3.74-2.24,1-2.88S384,346.88,384,346.88Z"/><path class="cls-2" d="M433.26,473.73c18.28-20.24,17.48-56.24,7-81.77-1,27.66-4.24,52.2-6.74,79.08"/><path class="cls-8" d="M440.28,397.14a3.31,3.31,0,0,1,0,.88c0,.67-.1,1.5-.17,2.53-.18,2.3-.42,5.44-.73,9.28-.65,7.93-1.54,18.7-2.52,30.61s-1.78,22.69-2.4,30.62c-.29,3.84-.52,7-.7,9.29l-.21,2.52a4.24,4.24,0,0,1-.13.87,3.29,3.29,0,0,1,0-.88c0-.66,0-1.5.07-2.53.08-2.2.24-5.38.46-9.3.45-7.85,1.2-18.69,2.17-30.65s2-22.77,2.75-30.6c.4-3.83.73-7,1-9.26.13-1,.23-1.85.31-2.51A4.54,4.54,0,0,1,440.28,397.14Z"/><path class="cls-8" d="M485.35,360.57c.22,0,.39,7,.39,15.69s-.17,15.7-.39,15.7-.38-7-.38-15.7S485.14,360.57,485.35,360.57Z"/><path class="cls-2" d="M473.44,412.71a16.1,16.1,0,0,0,3.37,8.33c1.72,2.23,5.21,4.41,8,4.25,0,0,7,.6,10.79-5.41,3.43-5.45,4.27-16.78,1.53-23.48-1.89-4.61-6.13-8.89-11.11-9-6.53-.15-10.63,4.57-12,9.35"/><path class="cls-8" d="M474,396.74a9.79,9.79,0,0,1,1.21-3.21,13.1,13.1,0,0,1,2.45-3.21,11.34,11.34,0,0,1,4.62-2.72,11.56,11.56,0,0,1,3.11-.49,9.37,9.37,0,0,1,3.4.44,13.47,13.47,0,0,1,6.07,4.35,17.44,17.44,0,0,1,3.56,7.43,32,32,0,0,1,.67,8.8c-.31,4.66-1.22,9.28-3.79,12.82a11.58,11.58,0,0,1-4.93,3.72,13.47,13.47,0,0,1-5.59.94h.05a8.4,8.4,0,0,1-4-1,13.3,13.3,0,0,1-3-2.1,15,15,0,0,1-3.28-4.88,14.88,14.88,0,0,1-1-3.61c0-.43-.08-.76-.09-1a1.12,1.12,0,0,1,0-.34,20.44,20.44,0,0,0,1.45,4.78,15.09,15.09,0,0,0,3.29,4.65,12.85,12.85,0,0,0,2.92,2,7.93,7.93,0,0,0,3.71.88h.05a11.87,11.87,0,0,0,9.87-4.47c2.4-3.32,3.32-7.87,3.6-12.42.32-5.87-.66-11.79-4-15.73a12.78,12.78,0,0,0-5.71-4.2,9.07,9.07,0,0,0-3.19-.46,11.31,11.31,0,0,0-3,.43,11.19,11.19,0,0,0-4.49,2.51,13.48,13.48,0,0,0-2.48,3A26.82,26.82,0,0,0,474,396.74Z"/><path class="cls-2" d="M470,413a16,16,0,0,0,3.36,8.32c1.72,2.23,5.21,4.42,8,4.26,0,0,7,.6,10.8-5.42,3.42-5.45,4.26-16.78,1.52-23.48-1.89-4.6-6.13-8.89-11.1-9-6.54-.16-10.63,4.56-12,9.34"/><path class="cls-8" d="M470.54,397a10.1,10.1,0,0,1,1.21-3.2,13.13,13.13,0,0,1,2.45-3.22,11.48,11.48,0,0,1,4.63-2.71,11.83,11.83,0,0,1,3.1-.5,9.39,9.39,0,0,1,3.4.45,13.33,13.33,0,0,1,6.07,4.35,17.51,17.51,0,0,1,3.57,7.43,32.42,32.42,0,0,1,.66,8.8c-.3,4.65-1.22,9.28-3.79,12.82a11.44,11.44,0,0,1-4.93,3.71,13.29,13.29,0,0,1-5.58.94h0a8.29,8.29,0,0,1-4-1,13.21,13.21,0,0,1-3-2.1,14.88,14.88,0,0,1-3.27-4.88,13.9,13.9,0,0,1-1-3.61c-.06-.42-.09-.75-.1-1s0-.33,0-.33a20,20,0,0,0,1.45,4.77,15,15,0,0,0,3.29,4.66,12.86,12.86,0,0,0,2.91,1.95,7.82,7.82,0,0,0,3.72.88h0a11.86,11.86,0,0,0,9.87-4.47c2.4-3.31,3.32-7.86,3.61-12.41.32-5.88-.67-11.8-4-15.74a12.84,12.84,0,0,0-5.72-4.19A8.61,8.61,0,0,0,482,388a11.33,11.33,0,0,0-3,.42,11.19,11.19,0,0,0-4.49,2.51A13.56,13.56,0,0,0,472,394,28.66,28.66,0,0,0,470.54,397Z"/><path class="cls-2" d="M476.27,395.36c-3.25-.65-6.6,1.58-8,4.6s-1.06,6.56,0,9.69a12.16,12.16,0,0,0,2.48,4.37,6.51,6.51,0,0,0,4.43,2.15c2.47.08,4.69-1.61,6.13-3.62a13.82,13.82,0,0,0,2.09-11.4c-.67-2.57-2.57-5.21-5.23-5.28"/><path class="cls-8" d="M478.21,395.87a1.41,1.41,0,0,1,.59,0,4.17,4.17,0,0,1,1.61.55,7.92,7.92,0,0,1,3.4,5.11,14,14,0,0,1-.92,9.09,11.69,11.69,0,0,1-3.33,4.37,6.41,6.41,0,0,1-5.73,1.37,8,8,0,0,1-4.58-3.74,16.79,16.79,0,0,1-1.91-5.13c-.71-3.42-.13-6.8,1.49-9a8,8,0,0,1,5.18-3.3,5.84,5.84,0,0,1,1.69,0c.38.08.58.13.57.16a11.37,11.37,0,0,0-2.21.14,7.88,7.88,0,0,0-4.79,3.31,11,11,0,0,0-1.23,8.52,16.2,16.2,0,0,0,1.86,4.88A7.27,7.27,0,0,0,474,415.6a5.7,5.7,0,0,0,5.06-1.23,11.23,11.23,0,0,0,3.15-4.07,13.74,13.74,0,0,0,1-8.67,7.8,7.8,0,0,0-3-5A6.15,6.15,0,0,0,478.21,395.87Z"/><path class="cls-8" d="M483.76,419.78c-.12,0-.28-.47-.79-1.07a5.49,5.49,0,0,0-2.53-1.62,14.15,14.15,0,0,0-3.12-.49c-.83-.06-1.36-.13-1.36-.23s.51-.23,1.35-.31a8.62,8.62,0,0,1,3.36.29,4.94,4.94,0,0,1,2.75,2C483.88,419.18,483.85,419.77,483.76,419.78Z"/><path class="cls-8" d="M484.93,393.34c.07.06-.23.53-.92,1.07a7.41,7.41,0,0,1-6.54,1.19c-.84-.27-1.28-.61-1.24-.69s2,.58,4.51.11S484.78,393.16,484.93,393.34Z"/><path class="cls-8" d="M587,287s.18,0,.49.18a13.19,13.19,0,0,1,1.32.68,26.77,26.77,0,0,1,4.45,3.18,32,32,0,0,1,9.56,15.13,96.83,96.83,0,0,1,3.64,17.61c.26,2.28.4,4.14.48,5.42a9.83,9.83,0,0,1,0,2,10.11,10.11,0,0,1-.34-2c-.19-1.42-.43-3.23-.72-5.38a113.92,113.92,0,0,0-3.84-17.46,32.83,32.83,0,0,0-9.19-14.94A50.81,50.81,0,0,0,587,287Z"/><path class="cls-8" d="M568.49,450.44c4.3-.16,7.74-4.46,12-4.23a6,6,0,1,1-1,11.93c-4.51-.53-7.16-5.83-11.59-6.84"/><path class="cls-8" d="M605,454.11a24.82,24.82,0,0,1-4-.34l.24-1.46c5.32.85,9.78,0,13.28-2.6,4.4-3.23,7.23-9,8.42-17.17l.05-.32c.48-3.23,1.16-66.76,1.16-78.82,0-18.84-16.54-21.41-17.24-21.51s-15.7-2.64-23.68,17.94c-8.35,21.55-21.7,63.07-22.58,67.94-.11.6-.28,1.34-.47,2.19-1.38,6.23-4.27,19.2,4.38,26.67,9.63,8.32,17.24,5.1,17.56,5l.61,1.36c-.36.15-8.75,3.78-19.15-5.2-9.32-8.05-6.3-21.6-4.85-28.11.19-.83.35-1.55.45-2.13.89-4.91,14.29-46.61,22.67-68.22,8.43-21.77,25.13-18.9,25.3-18.87s18.48,2.83,18.48,23c0,9.94-.66,75.61-1.17,79l0,.31c-1.25,8.58-4.28,14.69-9,18.16A17.07,17.07,0,0,1,605,454.11Z"/><path class="cls-8" d="M624.85,365.55c-.2.07-.43-3.17-3.09-7.4a25.18,25.18,0,0,0-15.41-10.87,28,28,0,0,0-18.81,2.46,32.8,32.8,0,0,0-6.53,4.68s.1-.18.34-.46a12.77,12.77,0,0,1,1.11-1.18,22.33,22.33,0,0,1,4.83-3.53,27.14,27.14,0,0,1,8.37-2.95,26.83,26.83,0,0,1,10.86.23,25.2,25.2,0,0,1,9.8,4.7,24.34,24.34,0,0,1,5.9,6.63,19.47,19.47,0,0,1,2.29,5.53,10.74,10.74,0,0,1,.3,1.6C624.86,365.35,624.88,365.55,624.85,365.55Z"/><path class="cls-8" d="M662.67,484.29a51.3,51.3,0,0,0-2-6.33,27.7,27.7,0,0,0-10.08-12.09,21.78,21.78,0,0,0-8.18-2.95,70.82,70.82,0,0,0-7.19-.75l-4.89-.34a8,8,0,0,1-1.79-.24,7.74,7.74,0,0,1,1.8-.06l4.91.1a61.8,61.8,0,0,1,7.28.58,21.85,21.85,0,0,1,8.48,3,26.9,26.9,0,0,1,10.16,12.53,24.34,24.34,0,0,1,1.36,4.74A6.42,6.42,0,0,1,662.67,484.29Z"/><path class="cls-13" d="M587.75,459.5s14.61-22.12,18.34-25,35.61-17.29,39.34-15,1.44,7.34,1.44,7.34,13.5-4.73,14.93-2.87a6.66,6.66,0,0,1,0,7.61s7.47-1.15,7.47,1.15-.86,5.17-4.31,7.75S639.11,458,637.31,462.11l-7.26-.44Z"/><path class="cls-14" d="M629.78,453.17a5.64,5.64,0,0,1,.67-1.39,26.91,26.91,0,0,1,2.4-3.46,40.54,40.54,0,0,1,10.59-8.92A80.16,80.16,0,0,1,656,433.52c1.66-.63,3-1.11,3.94-1.42a5.82,5.82,0,0,1,1.49-.42,5.7,5.7,0,0,1-1.38.7L656.18,434a102.46,102.46,0,0,0-12.34,6.05,44.16,44.16,0,0,0-10.57,8.61C631,451.31,629.91,453.25,629.78,453.17Z"/><path class="cls-14" d="M611.26,452.82a7.1,7.1,0,0,1,.7-1.63c.51-1,1.25-2.5,2.25-4.27a41,41,0,0,1,4-6,19.1,19.1,0,0,1,3.06-3c1.23-.83,2.53-1.61,3.87-2.4a106.49,106.49,0,0,1,14.26-7.12,42.52,42.52,0,0,1,4.59-1.53,7.11,7.11,0,0,1,1.75-.31c0,.13-2.43.7-6.13,2.35a136.52,136.52,0,0,0-14.08,7.27c-1.33.79-2.63,1.57-3.83,2.37a19,19,0,0,0-3,2.86,45.76,45.76,0,0,0-4.1,5.78l-2.45,4.14A8.77,8.77,0,0,1,611.26,452.82Z"/><path class="cls-8" d="M1001,604.15c0,.22-224.09.39-500.46.39S0,604.37,0,604.15s224-.38,500.51-.38S1001,603.94,1001,604.15Z"/></g></g></svg>